%TF.GenerationSoftware,KiCad,Pcbnew,9.0.0*%
%TF.CreationDate,2025-07-08T15:13:07+02:00*%
%TF.ProjectId,Genric ESP32 5 MOSFEST ,47656e72-6963-4204-9553-503332203520,rev?*%
%TF.SameCoordinates,Original*%
%TF.FileFunction,Copper,L2,Bot*%
%TF.FilePolarity,Positive*%
%FSLAX46Y46*%
G04 Gerber Fmt 4.6, Leading zero omitted, Abs format (unit mm)*
G04 Created by KiCad (PCBNEW 9.0.0) date 2025-07-08 15:13:07*
%MOMM*%
%LPD*%
G01*
G04 APERTURE LIST*
%TA.AperFunction,ComponentPad*%
%ADD10C,1.560000*%
%TD*%
%TA.AperFunction,ComponentPad*%
%ADD11R,1.560000X1.560000*%
%TD*%
%TA.AperFunction,ComponentPad*%
%ADD12R,1.845000X1.845000*%
%TD*%
%TA.AperFunction,ComponentPad*%
%ADD13C,1.845000*%
%TD*%
%TA.AperFunction,ComponentPad*%
%ADD14R,3.000000X3.000000*%
%TD*%
%TA.AperFunction,ComponentPad*%
%ADD15C,3.000000*%
%TD*%
%TA.AperFunction,ComponentPad*%
%ADD16C,1.400000*%
%TD*%
%TA.AperFunction,ViaPad*%
%ADD17C,0.600000*%
%TD*%
%TA.AperFunction,Conductor*%
%ADD18C,0.500000*%
%TD*%
%TA.AperFunction,Conductor*%
%ADD19C,0.200000*%
%TD*%
%TA.AperFunction,Conductor*%
%ADD20C,1.500000*%
%TD*%
G04 APERTURE END LIST*
D10*
%TO.P,U2,J3-19,CLK*%
%TO.N,unconnected-(U2-CLK-PadJ3-19)*%
X96400000Y-111000000D03*
%TO.P,U2,J3-18,SD0*%
%TO.N,unconnected-(U2-SD0-PadJ3-18)*%
X93860000Y-111000000D03*
%TO.P,U2,J3-17,SD1*%
%TO.N,unconnected-(U2-SD1-PadJ3-17)*%
X91320000Y-111000000D03*
%TO.P,U2,J3-16,IO15*%
%TO.N,unconnected-(U2-IO15-PadJ3-16)*%
X88780000Y-111000000D03*
%TO.P,U2,J3-15,IO2*%
%TO.N,unconnected-(U2-IO2-PadJ3-15)*%
X86240000Y-111000000D03*
%TO.P,U2,J3-14,IO0*%
%TO.N,unconnected-(U2-IO0-PadJ3-14)*%
X83700000Y-111000000D03*
%TO.P,U2,J3-13,IO4*%
%TO.N,unconnected-(U2-IO4-PadJ3-13)*%
X81160000Y-111000000D03*
%TO.P,U2,J3-12,IO16*%
%TO.N,unconnected-(U2-IO16-PadJ3-12)*%
X78620000Y-111000000D03*
%TO.P,U2,J3-11,IO17*%
%TO.N,unconnected-(U2-IO17-PadJ3-11)*%
X76080000Y-111000000D03*
%TO.P,U2,J3-10,IO5*%
%TO.N,unconnected-(U2-IO5-PadJ3-10)*%
X73540000Y-111000000D03*
%TO.P,U2,J3-9,IO18*%
%TO.N,unconnected-(U2-IO18-PadJ3-9)*%
X71000000Y-111000000D03*
%TO.P,U2,J3-8,IO19*%
%TO.N,unconnected-(U2-IO19-PadJ3-8)*%
X68460000Y-111000000D03*
%TO.P,U2,J3-7,GND2*%
%TO.N,unconnected-(U2-GND2-PadJ3-7)*%
X65920000Y-111000000D03*
%TO.P,U2,J3-6,IO21*%
%TO.N,unconnected-(U2-IO21-PadJ3-6)*%
X63380000Y-111000000D03*
%TO.P,U2,J3-5,RXD0*%
%TO.N,unconnected-(U2-RXD0-PadJ3-5)*%
X60840000Y-111000000D03*
%TO.P,U2,J3-4,TXD0*%
%TO.N,unconnected-(U2-TXD0-PadJ3-4)*%
X58300000Y-111000000D03*
%TO.P,U2,J3-3,IO22*%
%TO.N,unconnected-(U2-IO22-PadJ3-3)*%
X55760000Y-111000000D03*
%TO.P,U2,J3-2,IO23*%
%TO.N,unconnected-(U2-IO23-PadJ3-2)*%
X53220000Y-111000000D03*
%TO.P,U2,J3-1,GND3*%
%TO.N,unconnected-(U2-GND3-PadJ3-1)*%
X50680000Y-111000000D03*
%TO.P,U2,J2-18,CMD*%
%TO.N,unconnected-(U2-CMD-PadJ2-18)*%
X93860000Y-136400000D03*
%TO.P,U2,J2-17,SD3*%
%TO.N,unconnected-(U2-SD3-PadJ2-17)*%
X91320000Y-136400000D03*
%TO.P,U2,J2-16,SD2*%
%TO.N,unconnected-(U2-SD2-PadJ2-16)*%
X88780000Y-136400000D03*
%TO.P,U2,J2-15,IO13*%
%TO.N,unconnected-(U2-IO13-PadJ2-15)*%
X86240000Y-136400000D03*
%TO.P,U2,J2-14,GND1*%
%TO.N,GND*%
X83700000Y-136400000D03*
%TO.P,U2,J2-13,IO12*%
%TO.N,unconnected-(U2-IO12-PadJ2-13)*%
X81160000Y-136400000D03*
%TO.P,U2,J2-12,IO14*%
%TO.N,unconnected-(U2-IO14-PadJ2-12)*%
X78620000Y-136400000D03*
%TO.P,U2,J2-11,IO27*%
%TO.N,Net-(U2-IO27)*%
X76080000Y-136400000D03*
%TO.P,U2,J2-10,IO26*%
%TO.N,Net-(U2-IO26)*%
X73540000Y-136400000D03*
%TO.P,U2,J2-9,IO25*%
%TO.N,Net-(U2-IO25)*%
X71000000Y-136400000D03*
%TO.P,U2,J2-8,IO33*%
%TO.N,Net-(U2-IO33)*%
X68460000Y-136400000D03*
%TO.P,U2,J2-7,IO32*%
%TO.N,Net-(U2-IO32)*%
X65920000Y-136400000D03*
%TO.P,U2,J2-6,IO35*%
%TO.N,unconnected-(U2-IO35-PadJ2-6)*%
X63380000Y-136400000D03*
%TO.P,U2,J2-5,IO34*%
%TO.N,unconnected-(U2-IO34-PadJ2-5)*%
X60840000Y-136400000D03*
%TO.P,U2,J2-4,SENSOR_VN*%
%TO.N,unconnected-(U2-SENSOR_VN-PadJ2-4)*%
X58300000Y-136400000D03*
%TO.P,U2,J2-3,SENSOR_VP*%
%TO.N,unconnected-(U2-SENSOR_VP-PadJ2-3)*%
X55760000Y-136400000D03*
%TO.P,U2,J2-19,EXT_5V*%
%TO.N,unconnected-(U2-EXT_5V-PadJ2-19)*%
X96400000Y-136400000D03*
%TO.P,U2,J2-2,EN*%
%TO.N,unconnected-(U2-EN-PadJ2-2)*%
X53220000Y-136400000D03*
D11*
%TO.P,U2,J2-1,3V3*%
%TO.N,Net-(D1-A)*%
X50680000Y-136400000D03*
%TD*%
D12*
%TO.P,Q6,1*%
%TO.N,Net-(Q6-Pad1)*%
X132700000Y-133000000D03*
D13*
%TO.P,Q6,2*%
%TO.N,Net-(D7-A)*%
X132700000Y-135540000D03*
%TO.P,Q6,3*%
%TO.N,GND*%
X132700000Y-138080000D03*
%TD*%
D12*
%TO.P,Q5,1*%
%TO.N,Net-(Q5-Pad1)*%
X133510000Y-176000000D03*
D13*
%TO.P,Q5,2*%
%TO.N,Net-(D3-A)*%
X136050000Y-176000000D03*
%TO.P,Q5,3*%
%TO.N,GND*%
X138590000Y-176000000D03*
%TD*%
D12*
%TO.P,Q4,1*%
%TO.N,Net-(Q4-Pad1)*%
X106980000Y-176000000D03*
D13*
%TO.P,Q4,2*%
%TO.N,Net-(D8-A)*%
X109520000Y-176000000D03*
%TO.P,Q4,3*%
%TO.N,GND*%
X112060000Y-176000000D03*
%TD*%
D12*
%TO.P,Q3,1*%
%TO.N,Net-(Q3-Pad1)*%
X80450000Y-176000000D03*
D13*
%TO.P,Q3,2*%
%TO.N,Net-(D9-A)*%
X82990000Y-176000000D03*
%TO.P,Q3,3*%
%TO.N,GND*%
X85530000Y-176000000D03*
%TD*%
D12*
%TO.P,Q1,1*%
%TO.N,Net-(Q1-Pad1)*%
X53920000Y-176000000D03*
D13*
%TO.P,Q1,2*%
%TO.N,Net-(D10-A)*%
X56460000Y-176000000D03*
%TO.P,Q1,3*%
%TO.N,GND*%
X59000000Y-176000000D03*
%TD*%
D14*
%TO.P,J10,1,Pin_1*%
%TO.N,Net-(D7-A)*%
X149700000Y-139080000D03*
D15*
%TO.P,J10,2,Pin_2*%
%TO.N,Net-(D10-K)*%
X149700000Y-134000000D03*
%TD*%
D14*
%TO.P,J9,1,Pin_1*%
%TO.N,GND*%
X32000000Y-174000000D03*
D15*
%TO.P,J9,2,Pin_2*%
%TO.N,Net-(J5-Pin_2)*%
X37080000Y-174000000D03*
%TD*%
D14*
%TO.P,J8,1,Pin_1*%
%TO.N,Net-(D3-A)*%
X133497143Y-185000000D03*
D15*
%TO.P,J8,2,Pin_2*%
%TO.N,Net-(D10-K)*%
X138577143Y-185000000D03*
%TD*%
D14*
%TO.P,J7,1,Pin_1*%
%TO.N,Net-(D8-A)*%
X106971429Y-185000000D03*
D15*
%TO.P,J7,2,Pin_2*%
%TO.N,Net-(D10-K)*%
X112051429Y-185000000D03*
%TD*%
D14*
%TO.P,J6,1,Pin_1*%
%TO.N,Net-(D9-A)*%
X80445714Y-185000000D03*
D15*
%TO.P,J6,2,Pin_2*%
%TO.N,Net-(D10-K)*%
X85525714Y-185000000D03*
%TD*%
D14*
%TO.P,J5,1,Pin_1*%
%TO.N,GND*%
X19000000Y-185000000D03*
D15*
%TO.P,J5,2,Pin_2*%
%TO.N,Net-(J5-Pin_2)*%
X24080000Y-185000000D03*
%TD*%
D14*
%TO.P,J4,1,Pin_1*%
%TO.N,Net-(D10-A)*%
X53920000Y-185000000D03*
D15*
%TO.P,J4,2,Pin_2*%
%TO.N,Net-(D10-K)*%
X59000000Y-185000000D03*
%TD*%
D16*
%TO.P,F1,1*%
%TO.N,Net-(J5-Pin_2)*%
X40000000Y-185000000D03*
%TO.P,F1,2*%
%TO.N,Net-(D10-K)*%
X45100000Y-186800000D03*
%TD*%
D17*
%TO.N,Net-(D10-A)*%
X71000000Y-179000000D03*
%TO.N,Net-(D5-K)*%
X99000000Y-169000000D03*
X99000000Y-167000000D03*
%TO.N,GND*%
X129000000Y-189000000D03*
X101000000Y-188000000D03*
X75000000Y-189000000D03*
%TO.N,Net-(D1-A)*%
X86000000Y-166000000D03*
%TO.N,Net-(D10-K)*%
X144000000Y-178000000D03*
X143000000Y-182000000D03*
X144000000Y-175000000D03*
X153000000Y-172000000D03*
%TO.N,GND*%
X138000000Y-173000000D03*
%TO.N,Net-(Q5-Pad1)*%
X135000000Y-173000000D03*
%TO.N,Net-(D1-A)*%
X126000000Y-173000000D03*
X104000000Y-172000000D03*
%TO.N,Net-(D10-K)*%
X120000000Y-178000000D03*
X120000000Y-181000000D03*
%TO.N,Net-(D8-A)*%
X111000000Y-179000000D03*
X113000000Y-179000000D03*
%TO.N,GND*%
X111000000Y-173000000D03*
%TO.N,Net-(Q4-Pad1)*%
X108000000Y-173000000D03*
%TO.N,Net-(D10-K)*%
X65000000Y-183000000D03*
X65000000Y-179000000D03*
X94000000Y-180000000D03*
X93000000Y-182000000D03*
%TO.N,Net-(D9-A)*%
X98000000Y-173000000D03*
%TO.N,Net-(Q3-Pad1)*%
X83000000Y-162000000D03*
%TO.N,Net-(D1-A)*%
X72000000Y-168000000D03*
%TO.N,GND*%
X62000000Y-167000000D03*
%TO.N,Net-(D1-A)*%
X53000000Y-172000000D03*
X59000000Y-172000000D03*
%TO.N,GND*%
X40500000Y-158500000D03*
%TD*%
D18*
%TO.N,Net-(D10-A)*%
X56460000Y-176000000D02*
X58460000Y-178000000D01*
X58460000Y-178000000D02*
X70000000Y-178000000D01*
X70000000Y-178000000D02*
X71000000Y-179000000D01*
D19*
%TO.N,Net-(D5-K)*%
X99000000Y-167000000D02*
X99000000Y-169000000D01*
%TO.N,Net-(D10-K)*%
X120000000Y-181000000D02*
X120000000Y-178000000D01*
%TO.N,Net-(D7-A)*%
X132700000Y-135540000D02*
X137540000Y-135540000D01*
X137540000Y-135540000D02*
X141080000Y-139080000D01*
X141080000Y-139080000D02*
X149700000Y-139080000D01*
%TO.N,Net-(D10-K)*%
X144000000Y-181000000D02*
X144000000Y-178000000D01*
X143000000Y-182000000D02*
X144000000Y-181000000D01*
X144000000Y-175000000D02*
X144000000Y-172000000D01*
X144000000Y-172000000D02*
X153000000Y-172000000D01*
%TO.N,GND*%
X138590000Y-176000000D02*
X138590000Y-173590000D01*
X138590000Y-173590000D02*
X138000000Y-173000000D01*
%TO.N,Net-(Q5-Pad1)*%
X133510000Y-176000000D02*
X133510000Y-174490000D01*
X133510000Y-174490000D02*
X135000000Y-173000000D01*
%TO.N,Net-(D1-A)*%
X104000000Y-172000000D02*
X117000000Y-172000000D01*
X117000000Y-172000000D02*
X118000000Y-173000000D01*
X118000000Y-173000000D02*
X126000000Y-173000000D01*
%TO.N,Net-(D8-A)*%
X111000000Y-179000000D02*
X113000000Y-179000000D01*
%TO.N,GND*%
X112060000Y-176000000D02*
X112060000Y-174060000D01*
X112060000Y-174060000D02*
X111000000Y-173000000D01*
%TO.N,Net-(Q4-Pad1)*%
X106980000Y-176000000D02*
X106980000Y-174020000D01*
X106980000Y-174020000D02*
X108000000Y-173000000D01*
%TO.N,Net-(D10-K)*%
X65000000Y-179000000D02*
X65000000Y-183000000D01*
X94000000Y-180000000D02*
X94000000Y-181000000D01*
X94000000Y-181000000D02*
X93000000Y-182000000D01*
%TO.N,Net-(D9-A)*%
X82990000Y-176000000D02*
X85990000Y-173000000D01*
X85990000Y-173000000D02*
X98000000Y-173000000D01*
%TO.N,Net-(Q3-Pad1)*%
X80450000Y-172550000D02*
X83000000Y-170000000D01*
X80450000Y-176000000D02*
X80450000Y-172550000D01*
X89000000Y-162000000D02*
X83000000Y-162000000D01*
X88000000Y-170000000D02*
X90000000Y-168000000D01*
X83000000Y-170000000D02*
X88000000Y-170000000D01*
X90000000Y-163000000D02*
X89000000Y-162000000D01*
X90000000Y-168000000D02*
X90000000Y-163000000D01*
%TO.N,Net-(D1-A)*%
X72000000Y-168000000D02*
X74000000Y-166000000D01*
X74000000Y-166000000D02*
X86000000Y-166000000D01*
%TO.N,GND*%
X62000000Y-167000000D02*
X62000000Y-173000000D01*
X62000000Y-173000000D02*
X59000000Y-176000000D01*
%TO.N,Net-(D1-A)*%
X53000000Y-172000000D02*
X59000000Y-172000000D01*
D20*
%TO.N,GND*%
X32000000Y-167000000D02*
X40500000Y-158500000D01*
X32000000Y-175000000D02*
X32000000Y-167000000D01*
%TO.N,Net-(D10-A)*%
X53920000Y-185000000D02*
X53920000Y-182080000D01*
X53920000Y-182080000D02*
X56460000Y-179540000D01*
X56460000Y-179540000D02*
X56460000Y-176000000D01*
%TO.N,GND*%
X19000000Y-185000000D02*
X29000000Y-175000000D01*
X29000000Y-175000000D02*
X32000000Y-175000000D01*
%TO.N,Net-(D9-A)*%
X80445714Y-185000000D02*
X80445714Y-180554286D01*
X80445714Y-180554286D02*
X82990000Y-178010000D01*
X82990000Y-178010000D02*
X82990000Y-176000000D01*
%TO.N,Net-(D8-A)*%
X106971429Y-185000000D02*
X106971429Y-182028571D01*
X106971429Y-182028571D02*
X109520000Y-179480000D01*
X109520000Y-179480000D02*
X109520000Y-176000000D01*
%TO.N,Net-(D3-A)*%
X133497143Y-185000000D02*
X133497143Y-181502857D01*
X133497143Y-181502857D02*
X136050000Y-178950000D01*
X136050000Y-178950000D02*
X136050000Y-176000000D01*
%TD*%
%TA.AperFunction,Conductor*%
%TO.N,GND*%
G36*
X168442539Y-121019685D02*
G01*
X168488294Y-121072489D01*
X168499500Y-121124000D01*
X168499500Y-159037205D01*
X168499489Y-159038836D01*
X168001610Y-196877631D01*
X167981045Y-196944406D01*
X167927644Y-196989462D01*
X167877621Y-197000000D01*
X13121683Y-197000000D01*
X13054644Y-196980315D01*
X13008889Y-196927511D01*
X12997705Y-196878339D01*
X12777377Y-185200977D01*
X12744381Y-183452155D01*
X17000000Y-183452155D01*
X17000000Y-184750000D01*
X18280936Y-184750000D01*
X18269207Y-184778316D01*
X18240000Y-184925147D01*
X18240000Y-185074853D01*
X18269207Y-185221684D01*
X18280936Y-185250000D01*
X17000000Y-185250000D01*
X17000000Y-186547844D01*
X17006401Y-186607372D01*
X17006403Y-186607379D01*
X17056645Y-186742086D01*
X17056649Y-186742093D01*
X17142809Y-186857187D01*
X17142812Y-186857190D01*
X17257906Y-186943350D01*
X17257913Y-186943354D01*
X17392620Y-186993596D01*
X17392627Y-186993598D01*
X17452155Y-186999999D01*
X17452172Y-187000000D01*
X18750000Y-187000000D01*
X18750000Y-185719064D01*
X18778316Y-185730793D01*
X18925147Y-185760000D01*
X19074853Y-185760000D01*
X19221684Y-185730793D01*
X19250000Y-185719064D01*
X19250000Y-187000000D01*
X20547828Y-187000000D01*
X20547844Y-186999999D01*
X20607372Y-186993598D01*
X20607379Y-186993596D01*
X20742086Y-186943354D01*
X20742093Y-186943350D01*
X20857187Y-186857190D01*
X20857190Y-186857187D01*
X20943350Y-186742093D01*
X20943354Y-186742086D01*
X20993596Y-186607379D01*
X20993598Y-186607372D01*
X20999999Y-186547844D01*
X21000000Y-186547827D01*
X21000000Y-185250000D01*
X19719064Y-185250000D01*
X19730793Y-185221684D01*
X19760000Y-185074853D01*
X19760000Y-184925147D01*
X19748806Y-184868872D01*
X22079500Y-184868872D01*
X22079500Y-185131127D01*
X22091423Y-185221684D01*
X22113730Y-185391116D01*
X22177487Y-185629060D01*
X22181602Y-185644418D01*
X22181605Y-185644428D01*
X22281953Y-185886690D01*
X22281958Y-185886700D01*
X22413075Y-186113803D01*
X22572718Y-186321851D01*
X22572726Y-186321860D01*
X22758140Y-186507274D01*
X22758148Y-186507281D01*
X22758149Y-186507282D01*
X22806554Y-186544424D01*
X22966196Y-186666924D01*
X23193299Y-186798041D01*
X23193309Y-186798046D01*
X23435571Y-186898394D01*
X23435581Y-186898398D01*
X23688884Y-186966270D01*
X23937188Y-186998960D01*
X23948864Y-187000498D01*
X23948880Y-187000500D01*
X23948887Y-187000500D01*
X24211113Y-187000500D01*
X24211120Y-187000500D01*
X24471116Y-186966270D01*
X24724419Y-186898398D01*
X24966697Y-186798043D01*
X25126965Y-186705513D01*
X43899500Y-186705513D01*
X43899500Y-186894486D01*
X43929059Y-187081118D01*
X43987454Y-187260836D01*
X44073240Y-187429199D01*
X44184310Y-187582073D01*
X44317927Y-187715690D01*
X44470801Y-187826760D01*
X44550347Y-187867290D01*
X44639163Y-187912545D01*
X44639165Y-187912545D01*
X44639168Y-187912547D01*
X44735497Y-187943846D01*
X44818881Y-187970940D01*
X45005514Y-188000500D01*
X45005519Y-188000500D01*
X45194486Y-188000500D01*
X45381118Y-187970940D01*
X45560832Y-187912547D01*
X45729199Y-187826760D01*
X45882073Y-187715690D01*
X46015690Y-187582073D01*
X46126760Y-187429199D01*
X46212547Y-187260832D01*
X46270940Y-187081118D01*
X46300500Y-186894486D01*
X46300500Y-186705513D01*
X46270940Y-186518881D01*
X46212545Y-186339163D01*
X46141892Y-186200500D01*
X46126760Y-186170801D01*
X46015690Y-186017927D01*
X45882073Y-185884310D01*
X45729199Y-185773240D01*
X45703214Y-185760000D01*
X45560836Y-185687454D01*
X45381118Y-185629059D01*
X45194486Y-185599500D01*
X45194481Y-185599500D01*
X45005519Y-185599500D01*
X45005514Y-185599500D01*
X44818881Y-185629059D01*
X44639163Y-185687454D01*
X44470800Y-185773240D01*
X44383579Y-185836610D01*
X44317927Y-185884310D01*
X44317925Y-185884312D01*
X44317924Y-185884312D01*
X44184312Y-186017924D01*
X44184312Y-186017925D01*
X44184310Y-186017927D01*
X44136610Y-186083579D01*
X44073240Y-186170800D01*
X43987454Y-186339163D01*
X43929059Y-186518881D01*
X43899500Y-186705513D01*
X25126965Y-186705513D01*
X25193803Y-186666924D01*
X25401851Y-186507282D01*
X25401855Y-186507277D01*
X25401860Y-186507274D01*
X25587274Y-186321860D01*
X25587277Y-186321855D01*
X25587282Y-186321851D01*
X25746924Y-186113803D01*
X25878043Y-185886697D01*
X25978398Y-185644419D01*
X26046270Y-185391116D01*
X26080500Y-185131120D01*
X26080500Y-184905513D01*
X38799500Y-184905513D01*
X38799500Y-185094486D01*
X38829059Y-185281118D01*
X38887454Y-185460836D01*
X38973169Y-185629059D01*
X38973240Y-185629199D01*
X39084310Y-185782073D01*
X39217927Y-185915690D01*
X39370801Y-186026760D01*
X39450347Y-186067290D01*
X39539163Y-186112545D01*
X39539165Y-186112545D01*
X39539168Y-186112547D01*
X39635497Y-186143846D01*
X39718881Y-186170940D01*
X39905514Y-186200500D01*
X39905519Y-186200500D01*
X40094486Y-186200500D01*
X40281118Y-186170940D01*
X40281549Y-186170800D01*
X40460832Y-186112547D01*
X40629199Y-186026760D01*
X40782073Y-185915690D01*
X40915690Y-185782073D01*
X41026760Y-185629199D01*
X41112547Y-185460832D01*
X41170940Y-185281118D01*
X41175869Y-185250000D01*
X41200500Y-185094486D01*
X41200500Y-184905513D01*
X41170940Y-184718881D01*
X41143846Y-184635497D01*
X41112547Y-184539168D01*
X41112545Y-184539165D01*
X41112545Y-184539163D01*
X41067290Y-184450347D01*
X41026760Y-184370801D01*
X40915690Y-184217927D01*
X40782073Y-184084310D01*
X40629199Y-183973240D01*
X40460836Y-183887454D01*
X40281118Y-183829059D01*
X40094486Y-183799500D01*
X40094481Y-183799500D01*
X39905519Y-183799500D01*
X39905514Y-183799500D01*
X39718881Y-183829059D01*
X39539163Y-183887454D01*
X39370800Y-183973240D01*
X39283579Y-184036610D01*
X39217927Y-184084310D01*
X39217925Y-184084312D01*
X39217924Y-184084312D01*
X39084312Y-184217924D01*
X39084312Y-184217925D01*
X39084310Y-184217927D01*
X39068273Y-184240000D01*
X38973240Y-184370800D01*
X38887454Y-184539163D01*
X38829059Y-184718881D01*
X38799500Y-184905513D01*
X26080500Y-184905513D01*
X26080500Y-184868880D01*
X26046270Y-184608884D01*
X25978398Y-184355581D01*
X25921379Y-184217924D01*
X25878046Y-184113309D01*
X25878041Y-184113299D01*
X25746924Y-183886196D01*
X25587281Y-183678148D01*
X25587274Y-183678140D01*
X25401860Y-183492726D01*
X25401851Y-183492718D01*
X25348963Y-183452135D01*
X51919500Y-183452135D01*
X51919500Y-186547870D01*
X51919501Y-186547876D01*
X51925908Y-186607483D01*
X51976202Y-186742328D01*
X51976206Y-186742335D01*
X52062452Y-186857544D01*
X52062455Y-186857547D01*
X52177664Y-186943793D01*
X52177671Y-186943797D01*
X52312517Y-186994091D01*
X52312516Y-186994091D01*
X52319444Y-186994835D01*
X52372127Y-187000500D01*
X55467872Y-187000499D01*
X55527483Y-186994091D01*
X55662331Y-186943796D01*
X55777546Y-186857546D01*
X55863796Y-186742331D01*
X55914091Y-186607483D01*
X55920500Y-186547873D01*
X55920499Y-184868872D01*
X56999500Y-184868872D01*
X56999500Y-185131127D01*
X57011423Y-185221684D01*
X57033730Y-185391116D01*
X57097487Y-185629060D01*
X57101602Y-185644418D01*
X57101605Y-185644428D01*
X57201953Y-185886690D01*
X57201958Y-185886700D01*
X57333075Y-186113803D01*
X57492718Y-186321851D01*
X57492726Y-186321860D01*
X57678140Y-186507274D01*
X57678148Y-186507281D01*
X57678149Y-186507282D01*
X57726554Y-186544424D01*
X57886196Y-186666924D01*
X58113299Y-186798041D01*
X58113309Y-186798046D01*
X58355571Y-186898394D01*
X58355581Y-186898398D01*
X58608884Y-186966270D01*
X58857188Y-186998960D01*
X58868864Y-187000498D01*
X58868880Y-187000500D01*
X58868887Y-187000500D01*
X59131113Y-187000500D01*
X59131120Y-187000500D01*
X59391116Y-186966270D01*
X59644419Y-186898398D01*
X59886697Y-186798043D01*
X60113803Y-186666924D01*
X60321851Y-186507282D01*
X60321855Y-186507277D01*
X60321860Y-186507274D01*
X60507274Y-186321860D01*
X60507277Y-186321855D01*
X60507282Y-186321851D01*
X60666924Y-186113803D01*
X60798043Y-185886697D01*
X60898398Y-185644419D01*
X60966270Y-185391116D01*
X61000500Y-185131120D01*
X61000500Y-184868880D01*
X60966270Y-184608884D01*
X60898398Y-184355581D01*
X60841379Y-184217924D01*
X60798046Y-184113309D01*
X60798041Y-184113299D01*
X60666924Y-183886196D01*
X60507281Y-183678148D01*
X60507274Y-183678140D01*
X60321860Y-183492726D01*
X60321851Y-183492718D01*
X60113803Y-183333075D01*
X59886700Y-183201958D01*
X59886690Y-183201953D01*
X59644428Y-183101605D01*
X59644421Y-183101603D01*
X59644419Y-183101602D01*
X59391116Y-183033730D01*
X59333339Y-183026123D01*
X59131127Y-182999500D01*
X59131120Y-182999500D01*
X58868880Y-182999500D01*
X58868872Y-182999500D01*
X58637772Y-183029926D01*
X58608884Y-183033730D01*
X58440508Y-183078846D01*
X58355581Y-183101602D01*
X58355571Y-183101605D01*
X58113309Y-183201953D01*
X58113299Y-183201958D01*
X57886196Y-183333075D01*
X57678148Y-183492718D01*
X57492718Y-183678148D01*
X57333075Y-183886196D01*
X57201958Y-184113299D01*
X57201953Y-184113309D01*
X57101605Y-184355571D01*
X57101602Y-184355581D01*
X57033730Y-184608885D01*
X56999500Y-184868872D01*
X55920499Y-184868872D01*
X55920499Y-183452128D01*
X55914091Y-183392517D01*
X55909390Y-183379914D01*
X55863797Y-183257671D01*
X55863793Y-183257664D01*
X55777547Y-183142455D01*
X55777544Y-183142452D01*
X55662335Y-183056206D01*
X55662328Y-183056202D01*
X55527482Y-183005908D01*
X55527483Y-183005908D01*
X55467883Y-182999501D01*
X55467881Y-182999500D01*
X55467873Y-182999500D01*
X55467865Y-182999500D01*
X55294500Y-182999500D01*
X55285814Y-182996949D01*
X55276853Y-182998238D01*
X55252812Y-182987259D01*
X55227461Y-182979815D01*
X55221533Y-182972974D01*
X55213297Y-182969213D01*
X55199007Y-182946978D01*
X55181706Y-182927011D01*
X55179418Y-182916496D01*
X55175523Y-182910435D01*
X55170500Y-182875500D01*
X55170500Y-182649336D01*
X55190185Y-182582297D01*
X55206819Y-182561655D01*
X56278767Y-181489707D01*
X57413828Y-180354646D01*
X57445501Y-180311052D01*
X57457422Y-180294645D01*
X57481533Y-180261459D01*
X57529524Y-180195405D01*
X57618884Y-180020025D01*
X57679709Y-179832826D01*
X57690214Y-179766503D01*
X57694469Y-179739637D01*
X57710500Y-179638421D01*
X57710500Y-178611229D01*
X57730185Y-178544190D01*
X57782989Y-178498435D01*
X57852147Y-178488491D01*
X57915703Y-178517516D01*
X57922167Y-178523534D01*
X57976184Y-178577551D01*
X57981585Y-178582952D01*
X58104498Y-178665080D01*
X58104511Y-178665087D01*
X58241082Y-178721656D01*
X58241087Y-178721658D01*
X58241091Y-178721658D01*
X58241092Y-178721659D01*
X58386079Y-178750500D01*
X58386082Y-178750500D01*
X58386083Y-178750500D01*
X58533917Y-178750500D01*
X64082351Y-178750500D01*
X64149390Y-178770185D01*
X64195145Y-178822989D01*
X64205089Y-178892147D01*
X64203969Y-178898690D01*
X64199500Y-178921158D01*
X64199500Y-179078846D01*
X64230261Y-179233489D01*
X64230264Y-179233501D01*
X64290602Y-179379172D01*
X64290609Y-179379185D01*
X64378602Y-179510874D01*
X64399480Y-179577551D01*
X64399500Y-179579765D01*
X64399500Y-182420234D01*
X64379815Y-182487273D01*
X64378602Y-182489125D01*
X64290609Y-182620814D01*
X64290602Y-182620827D01*
X64230264Y-182766498D01*
X64230261Y-182766510D01*
X64199500Y-182921153D01*
X64199500Y-183078846D01*
X64230261Y-183233489D01*
X64230264Y-183233501D01*
X64290602Y-183379172D01*
X64290609Y-183379185D01*
X64378210Y-183510288D01*
X64378213Y-183510292D01*
X64489707Y-183621786D01*
X64489711Y-183621789D01*
X64620814Y-183709390D01*
X64620827Y-183709397D01*
X64766498Y-183769735D01*
X64766503Y-183769737D01*
X64916131Y-183799500D01*
X64921153Y-183800499D01*
X64921156Y-183800500D01*
X64921158Y-183800500D01*
X65078844Y-183800500D01*
X65078845Y-183800499D01*
X65233497Y-183769737D01*
X65379179Y-183709394D01*
X65510289Y-183621789D01*
X65621789Y-183510289D01*
X65660645Y-183452135D01*
X78445214Y-183452135D01*
X78445214Y-186547870D01*
X78445215Y-186547876D01*
X78451622Y-186607483D01*
X78501916Y-186742328D01*
X78501920Y-186742335D01*
X78588166Y-186857544D01*
X78588169Y-186857547D01*
X78703378Y-186943793D01*
X78703385Y-186943797D01*
X78838231Y-186994091D01*
X78838230Y-186994091D01*
X78845158Y-186994835D01*
X78897841Y-187000500D01*
X81993586Y-187000499D01*
X82053197Y-186994091D01*
X82188045Y-186943796D01*
X82303260Y-186857546D01*
X82389510Y-186742331D01*
X82439805Y-186607483D01*
X82446214Y-186547873D01*
X82446213Y-184868872D01*
X83525214Y-184868872D01*
X83525214Y-185131127D01*
X83537137Y-185221684D01*
X83559444Y-185391116D01*
X83623201Y-185629060D01*
X83627316Y-185644418D01*
X83627319Y-185644428D01*
X83727667Y-185886690D01*
X83727672Y-185886700D01*
X83858789Y-186113803D01*
X84018432Y-186321851D01*
X84018440Y-186321860D01*
X84203854Y-186507274D01*
X84203862Y-186507281D01*
X84203863Y-186507282D01*
X84252268Y-186544424D01*
X84411910Y-186666924D01*
X84639013Y-186798041D01*
X84639023Y-186798046D01*
X84881285Y-186898394D01*
X84881295Y-186898398D01*
X85134598Y-186966270D01*
X85382902Y-186998960D01*
X85394578Y-187000498D01*
X85394594Y-187000500D01*
X85394601Y-187000500D01*
X85656827Y-187000500D01*
X85656834Y-187000500D01*
X85916830Y-186966270D01*
X86170133Y-186898398D01*
X86412411Y-186798043D01*
X86639517Y-186666924D01*
X86847565Y-186507282D01*
X86847569Y-186507277D01*
X86847574Y-186507274D01*
X87032988Y-186321860D01*
X87032991Y-186321855D01*
X87032996Y-186321851D01*
X87192638Y-186113803D01*
X87323757Y-185886697D01*
X87424112Y-185644419D01*
X87491984Y-185391116D01*
X87526214Y-185131120D01*
X87526214Y-184868880D01*
X87491984Y-184608884D01*
X87424112Y-184355581D01*
X87367093Y-184217924D01*
X87323760Y-184113309D01*
X87323755Y-184113299D01*
X87192638Y-183886196D01*
X87032995Y-183678148D01*
X87032988Y-183678140D01*
X86847574Y-183492726D01*
X86847565Y-183492718D01*
X86639517Y-183333075D01*
X86412414Y-183201958D01*
X86412404Y-183201953D01*
X86170142Y-183101605D01*
X86170135Y-183101603D01*
X86170133Y-183101602D01*
X85916830Y-183033730D01*
X85859053Y-183026123D01*
X85656841Y-182999500D01*
X85656834Y-182999500D01*
X85394594Y-182999500D01*
X85394586Y-182999500D01*
X85163486Y-183029926D01*
X85134598Y-183033730D01*
X84966222Y-183078846D01*
X84881295Y-183101602D01*
X84881285Y-183101605D01*
X84639023Y-183201953D01*
X84639013Y-183201958D01*
X84411910Y-183333075D01*
X84203862Y-183492718D01*
X84018432Y-183678148D01*
X83858789Y-183886196D01*
X83727672Y-184113299D01*
X83727667Y-184113309D01*
X83627319Y-184355571D01*
X83627316Y-184355581D01*
X83559444Y-184608885D01*
X83525214Y-184868872D01*
X82446213Y-184868872D01*
X82446213Y-183452128D01*
X82439805Y-183392517D01*
X82435104Y-183379914D01*
X82389511Y-183257671D01*
X82389507Y-183257664D01*
X82303261Y-183142455D01*
X82303258Y-183142452D01*
X82188049Y-183056206D01*
X82188042Y-183056202D01*
X82053196Y-183005908D01*
X82053197Y-183005908D01*
X81993597Y-182999501D01*
X81993595Y-182999500D01*
X81993587Y-182999500D01*
X81993579Y-182999500D01*
X81820214Y-182999500D01*
X81753175Y-182979815D01*
X81707420Y-182927011D01*
X81696214Y-182875500D01*
X81696214Y-181921153D01*
X92199500Y-181921153D01*
X92199500Y-182078846D01*
X92230261Y-182233489D01*
X92230264Y-182233501D01*
X92290602Y-182379172D01*
X92290609Y-182379185D01*
X92378210Y-182510288D01*
X92378213Y-182510292D01*
X92489707Y-182621786D01*
X92489711Y-182621789D01*
X92620814Y-182709390D01*
X92620827Y-182709397D01*
X92758683Y-182766498D01*
X92766503Y-182769737D01*
X92921153Y-182800499D01*
X92921156Y-182800500D01*
X92921158Y-182800500D01*
X93078844Y-182800500D01*
X93078845Y-182800499D01*
X93233497Y-182769737D01*
X93379179Y-182709394D01*
X93510289Y-182621789D01*
X93621789Y-182510289D01*
X93709394Y-182379179D01*
X93769737Y-182233497D01*
X93789113Y-182136085D01*
X93800638Y-182078150D01*
X93833023Y-182016239D01*
X93834515Y-182014719D01*
X94480520Y-181368716D01*
X94559577Y-181231784D01*
X94600501Y-181079057D01*
X94600501Y-180920942D01*
X94600501Y-180913347D01*
X94600500Y-180913329D01*
X94600500Y-180579765D01*
X94620185Y-180512726D01*
X94621398Y-180510874D01*
X94709390Y-180379185D01*
X94709390Y-180379184D01*
X94709394Y-180379179D01*
X94769737Y-180233497D01*
X94800500Y-180078842D01*
X94800500Y-179921158D01*
X94800500Y-179921155D01*
X94800499Y-179921153D01*
X94790267Y-179869715D01*
X94769737Y-179766503D01*
X94746080Y-179709390D01*
X94709397Y-179620827D01*
X94709390Y-179620814D01*
X94621789Y-179489711D01*
X94621786Y-179489707D01*
X94510292Y-179378213D01*
X94510288Y-179378210D01*
X94379185Y-179290609D01*
X94379172Y-179290602D01*
X94233501Y-179230264D01*
X94233489Y-179230261D01*
X94078845Y-179199500D01*
X94078842Y-179199500D01*
X93921158Y-179199500D01*
X93921155Y-179199500D01*
X93766510Y-179230261D01*
X93766498Y-179230264D01*
X93620827Y-179290602D01*
X93620814Y-179290609D01*
X93489711Y-179378210D01*
X93489707Y-179378213D01*
X93378213Y-179489707D01*
X93378210Y-179489711D01*
X93290609Y-179620814D01*
X93290602Y-179620827D01*
X93230264Y-179766498D01*
X93230261Y-179766510D01*
X93199500Y-179921153D01*
X93199500Y-180078846D01*
X93230261Y-180233489D01*
X93230264Y-180233501D01*
X93290602Y-180379172D01*
X93290609Y-180379185D01*
X93378602Y-180510874D01*
X93384252Y-180528920D01*
X93394477Y-180544830D01*
X93398928Y-180575789D01*
X93399480Y-180577551D01*
X93399500Y-180579765D01*
X93399500Y-180699902D01*
X93379815Y-180766941D01*
X93363181Y-180787583D01*
X92985339Y-181165425D01*
X92924016Y-181198910D01*
X92921850Y-181199361D01*
X92766508Y-181230261D01*
X92766498Y-181230264D01*
X92620827Y-181290602D01*
X92620814Y-181290609D01*
X92489711Y-181378210D01*
X92489707Y-181378213D01*
X92378213Y-181489707D01*
X92378210Y-181489711D01*
X92290609Y-181620814D01*
X92290602Y-181620827D01*
X92230264Y-181766498D01*
X92230261Y-181766510D01*
X92199500Y-181921153D01*
X81696214Y-181921153D01*
X81696214Y-181123622D01*
X81715899Y-181056583D01*
X81732533Y-181035941D01*
X82808448Y-179960026D01*
X83943829Y-178824646D01*
X84059524Y-178665405D01*
X84148884Y-178490026D01*
X84209709Y-178302826D01*
X84216446Y-178260291D01*
X84225980Y-178200097D01*
X84240500Y-178108422D01*
X84240500Y-176938137D01*
X84260185Y-176871098D01*
X84312989Y-176825343D01*
X84359286Y-176817160D01*
X84955745Y-176220700D01*
X84984994Y-176291312D01*
X85052298Y-176392040D01*
X85137960Y-176477702D01*
X85238688Y-176545006D01*
X85309298Y-176574253D01*
X84716376Y-177167174D01*
X84784446Y-177216630D01*
X84983946Y-177318281D01*
X85196896Y-177387473D01*
X85418042Y-177422500D01*
X85641958Y-177422500D01*
X85863103Y-177387473D01*
X86076053Y-177318281D01*
X86275552Y-177216631D01*
X86343621Y-177167174D01*
X86343622Y-177167174D01*
X85750701Y-176574253D01*
X85821312Y-176545006D01*
X85922040Y-176477702D01*
X86007702Y-176392040D01*
X86075006Y-176291312D01*
X86104253Y-176220701D01*
X86697174Y-176813622D01*
X86697174Y-176813621D01*
X86746631Y-176745552D01*
X86848281Y-176546053D01*
X86917473Y-176333103D01*
X86952500Y-176111958D01*
X86952500Y-175888041D01*
X86917473Y-175666896D01*
X86848281Y-175453946D01*
X86746630Y-175254446D01*
X86697174Y-175186377D01*
X86697174Y-175186376D01*
X86104253Y-175779297D01*
X86075006Y-175708688D01*
X86007702Y-175607960D01*
X85922040Y-175522298D01*
X85821312Y-175454994D01*
X85750700Y-175425745D01*
X86343622Y-174832824D01*
X86343621Y-174832822D01*
X86275556Y-174783371D01*
X86076053Y-174681718D01*
X85863103Y-174612526D01*
X85641958Y-174577500D01*
X85561096Y-174577500D01*
X85494057Y-174557815D01*
X85448302Y-174505011D01*
X85438358Y-174435853D01*
X85467383Y-174372297D01*
X85473398Y-174365836D01*
X86202417Y-173636819D01*
X86263740Y-173603334D01*
X86290098Y-173600500D01*
X97420234Y-173600500D01*
X97487273Y-173620185D01*
X97489125Y-173621398D01*
X97620814Y-173709390D01*
X97620827Y-173709397D01*
X97690114Y-173738096D01*
X97766503Y-173769737D01*
X97859398Y-173788215D01*
X97921153Y-173800499D01*
X97921156Y-173800500D01*
X97921158Y-173800500D01*
X98078844Y-173800500D01*
X98078845Y-173800499D01*
X98233497Y-173769737D01*
X98379179Y-173709394D01*
X98510289Y-173621789D01*
X98621789Y-173510289D01*
X98709394Y-173379179D01*
X98769737Y-173233497D01*
X98800500Y-173078842D01*
X98800500Y-172921158D01*
X98800500Y-172921155D01*
X98800499Y-172921153D01*
X98793546Y-172886197D01*
X98769737Y-172766503D01*
X98762710Y-172749539D01*
X98709397Y-172620827D01*
X98709390Y-172620814D01*
X98621789Y-172489711D01*
X98621786Y-172489707D01*
X98510292Y-172378213D01*
X98510288Y-172378210D01*
X98379185Y-172290609D01*
X98379172Y-172290602D01*
X98233501Y-172230264D01*
X98233489Y-172230261D01*
X98078845Y-172199500D01*
X98078842Y-172199500D01*
X97921158Y-172199500D01*
X97921155Y-172199500D01*
X97766510Y-172230261D01*
X97766498Y-172230264D01*
X97620827Y-172290602D01*
X97620814Y-172290609D01*
X97489125Y-172378602D01*
X97422447Y-172399480D01*
X97420234Y-172399500D01*
X86076670Y-172399500D01*
X86076654Y-172399499D01*
X86069058Y-172399499D01*
X85910943Y-172399499D01*
X85834579Y-172419961D01*
X85758214Y-172440423D01*
X85758209Y-172440426D01*
X85621290Y-172519475D01*
X85621282Y-172519481D01*
X83532059Y-174608704D01*
X83470736Y-174642189D01*
X83406061Y-174638954D01*
X83323223Y-174612039D01*
X83157299Y-174585759D01*
X83101993Y-174577000D01*
X82878007Y-174577000D01*
X82793845Y-174590330D01*
X82656779Y-174612039D01*
X82443753Y-174681255D01*
X82244185Y-174782941D01*
X82172298Y-174835171D01*
X82062978Y-174914597D01*
X82062976Y-174914599D01*
X82062974Y-174914600D01*
X82041318Y-174936256D01*
X81979995Y-174969740D01*
X81910303Y-174964754D01*
X81854370Y-174922881D01*
X81837459Y-174891911D01*
X81816296Y-174835169D01*
X81816295Y-174835167D01*
X81816293Y-174835164D01*
X81730047Y-174719955D01*
X81730044Y-174719952D01*
X81614835Y-174633706D01*
X81614828Y-174633702D01*
X81479982Y-174583408D01*
X81479983Y-174583408D01*
X81420383Y-174577001D01*
X81420381Y-174577000D01*
X81420373Y-174577000D01*
X81420365Y-174577000D01*
X81174500Y-174577000D01*
X81107461Y-174557315D01*
X81061706Y-174504511D01*
X81050500Y-174453000D01*
X81050500Y-172850097D01*
X81070185Y-172783058D01*
X81086819Y-172762416D01*
X81928082Y-171921153D01*
X103199500Y-171921153D01*
X103199500Y-172078846D01*
X103230261Y-172233489D01*
X103230264Y-172233501D01*
X103290602Y-172379172D01*
X103290609Y-172379185D01*
X103378210Y-172510288D01*
X103378213Y-172510292D01*
X103489707Y-172621786D01*
X103489711Y-172621789D01*
X103620814Y-172709390D01*
X103620827Y-172709397D01*
X103748828Y-172762416D01*
X103766503Y-172769737D01*
X103912285Y-172798735D01*
X103921153Y-172800499D01*
X103921156Y-172800500D01*
X103921158Y-172800500D01*
X104078844Y-172800500D01*
X104078845Y-172800499D01*
X104233497Y-172769737D01*
X104379179Y-172709394D01*
X104389286Y-172702641D01*
X104510875Y-172621398D01*
X104577553Y-172600520D01*
X104579766Y-172600500D01*
X107113445Y-172600500D01*
X107180484Y-172620185D01*
X107226239Y-172672989D01*
X107236183Y-172742147D01*
X107234891Y-172749539D01*
X107232513Y-172761069D01*
X107230263Y-172766503D01*
X107199500Y-172921158D01*
X107199500Y-172921193D01*
X107199190Y-172922697D01*
X107182978Y-172953167D01*
X107166976Y-172983761D01*
X107166380Y-172984366D01*
X107166373Y-172984381D01*
X107166358Y-172984388D01*
X107165425Y-172985339D01*
X106499481Y-173651282D01*
X106499480Y-173651284D01*
X106465931Y-173709394D01*
X106449361Y-173738094D01*
X106449359Y-173738096D01*
X106420425Y-173788209D01*
X106420424Y-173788210D01*
X106420423Y-173788215D01*
X106379499Y-173940943D01*
X106379499Y-173940945D01*
X106379499Y-174109046D01*
X106379500Y-174109059D01*
X106379500Y-174453000D01*
X106359815Y-174520039D01*
X106307011Y-174565794D01*
X106255500Y-174577000D01*
X106009630Y-174577000D01*
X106009623Y-174577001D01*
X105950016Y-174583408D01*
X105815171Y-174633702D01*
X105815164Y-174633706D01*
X105699955Y-174719952D01*
X105699952Y-174719955D01*
X105613706Y-174835164D01*
X105613702Y-174835171D01*
X105563408Y-174970017D01*
X105557001Y-175029616D01*
X105557000Y-175029635D01*
X105557000Y-176970370D01*
X105557001Y-176970376D01*
X105563408Y-177029983D01*
X105613702Y-177164828D01*
X105613706Y-177164835D01*
X105699952Y-177280044D01*
X105699955Y-177280047D01*
X105815164Y-177366293D01*
X105815171Y-177366297D01*
X105950017Y-177416591D01*
X105950016Y-177416591D01*
X105956944Y-177417335D01*
X106009627Y-177423000D01*
X107950372Y-177422999D01*
X108009983Y-177416591D01*
X108102169Y-177382207D01*
X108171858Y-177377224D01*
X108233181Y-177410709D01*
X108266666Y-177472032D01*
X108269500Y-177498390D01*
X108269500Y-178910664D01*
X108249815Y-178977703D01*
X108233181Y-178998345D01*
X106017603Y-181213922D01*
X106017603Y-181213923D01*
X106017601Y-181213925D01*
X105967914Y-181282312D01*
X105901905Y-181373165D01*
X105812544Y-181548544D01*
X105812543Y-181548547D01*
X105779418Y-181650500D01*
X105751719Y-181735747D01*
X105751719Y-181735748D01*
X105720929Y-181930148D01*
X105720929Y-182875500D01*
X105701244Y-182942539D01*
X105648440Y-182988294D01*
X105596930Y-182999500D01*
X105423559Y-182999500D01*
X105423552Y-182999501D01*
X105363945Y-183005908D01*
X105229100Y-183056202D01*
X105229093Y-183056206D01*
X105113884Y-183142452D01*
X105113881Y-183142455D01*
X105027635Y-183257664D01*
X105027631Y-183257671D01*
X104977337Y-183392517D01*
X104970930Y-183452116D01*
X104970930Y-183452123D01*
X104970929Y-183452135D01*
X104970929Y-186547870D01*
X104970930Y-186547876D01*
X104977337Y-186607483D01*
X105027631Y-186742328D01*
X105027635Y-186742335D01*
X105113881Y-186857544D01*
X105113884Y-186857547D01*
X105229093Y-186943793D01*
X105229100Y-186943797D01*
X105363946Y-186994091D01*
X105363945Y-186994091D01*
X105370873Y-186994835D01*
X105423556Y-187000500D01*
X108519301Y-187000499D01*
X108578912Y-186994091D01*
X108713760Y-186943796D01*
X108828975Y-186857546D01*
X108915225Y-186742331D01*
X108965520Y-186607483D01*
X108971929Y-186547873D01*
X108971928Y-184868872D01*
X110050929Y-184868872D01*
X110050929Y-185131127D01*
X110062852Y-185221684D01*
X110085159Y-185391116D01*
X110148916Y-185629060D01*
X110153031Y-185644418D01*
X110153034Y-185644428D01*
X110253382Y-185886690D01*
X110253387Y-185886700D01*
X110384504Y-186113803D01*
X110544147Y-186321851D01*
X110544155Y-186321860D01*
X110729569Y-186507274D01*
X110729577Y-186507281D01*
X110729578Y-186507282D01*
X110777983Y-186544424D01*
X110937625Y-186666924D01*
X111164728Y-186798041D01*
X111164738Y-186798046D01*
X111407000Y-186898394D01*
X111407010Y-186898398D01*
X111660313Y-186966270D01*
X111908617Y-186998960D01*
X111920293Y-187000498D01*
X111920309Y-187000500D01*
X111920316Y-187000500D01*
X112182542Y-187000500D01*
X112182549Y-187000500D01*
X112442545Y-186966270D01*
X112695848Y-186898398D01*
X112938126Y-186798043D01*
X113165232Y-186666924D01*
X113373280Y-186507282D01*
X113373284Y-186507277D01*
X113373289Y-186507274D01*
X113558703Y-186321860D01*
X113558706Y-186321855D01*
X113558711Y-186321851D01*
X113718353Y-186113803D01*
X113849472Y-185886697D01*
X113949827Y-185644419D01*
X114017699Y-185391116D01*
X114051929Y-185131120D01*
X114051929Y-184868880D01*
X114017699Y-184608884D01*
X113949827Y-184355581D01*
X113892808Y-184217924D01*
X113849475Y-184113309D01*
X113849470Y-184113299D01*
X113718353Y-183886196D01*
X113558710Y-183678148D01*
X113558703Y-183678140D01*
X113373289Y-183492726D01*
X113373280Y-183492718D01*
X113320392Y-183452135D01*
X131496643Y-183452135D01*
X131496643Y-186547870D01*
X131496644Y-186547876D01*
X131503051Y-186607483D01*
X131553345Y-186742328D01*
X131553349Y-186742335D01*
X131639595Y-186857544D01*
X131639598Y-186857547D01*
X131754807Y-186943793D01*
X131754814Y-186943797D01*
X131889660Y-186994091D01*
X131889659Y-186994091D01*
X131896587Y-186994835D01*
X131949270Y-187000500D01*
X135045015Y-187000499D01*
X135104626Y-186994091D01*
X135239474Y-186943796D01*
X135354689Y-186857546D01*
X135440939Y-186742331D01*
X135491234Y-186607483D01*
X135497643Y-186547873D01*
X135497642Y-184868872D01*
X136576643Y-184868872D01*
X136576643Y-185131127D01*
X136588566Y-185221684D01*
X136610873Y-185391116D01*
X136674630Y-185629060D01*
X136678745Y-185644418D01*
X136678748Y-185644428D01*
X136779096Y-185886690D01*
X136779101Y-185886700D01*
X136910218Y-186113803D01*
X137069861Y-186321851D01*
X137069869Y-186321860D01*
X137255283Y-186507274D01*
X137255291Y-186507281D01*
X137255292Y-186507282D01*
X137303697Y-186544424D01*
X137463339Y-186666924D01*
X137690442Y-186798041D01*
X137690452Y-186798046D01*
X137932714Y-186898394D01*
X137932724Y-186898398D01*
X138186027Y-186966270D01*
X138434331Y-186998960D01*
X138446007Y-187000498D01*
X138446023Y-187000500D01*
X138446030Y-187000500D01*
X138708256Y-187000500D01*
X138708263Y-187000500D01*
X138968259Y-186966270D01*
X139221562Y-186898398D01*
X139463840Y-186798043D01*
X139690946Y-186666924D01*
X139898994Y-186507282D01*
X139898998Y-186507277D01*
X139899003Y-186507274D01*
X140084417Y-186321860D01*
X140084420Y-186321855D01*
X140084425Y-186321851D01*
X140244067Y-186113803D01*
X140375186Y-185886697D01*
X140475541Y-185644419D01*
X140543413Y-185391116D01*
X140577643Y-185131120D01*
X140577643Y-184868880D01*
X140543413Y-184608884D01*
X140475541Y-184355581D01*
X140418522Y-184217924D01*
X140375189Y-184113309D01*
X140375184Y-184113299D01*
X140244067Y-183886196D01*
X140084424Y-183678148D01*
X140084417Y-183678140D01*
X139899003Y-183492726D01*
X139898994Y-183492718D01*
X139690946Y-183333075D01*
X139463843Y-183201958D01*
X139463833Y-183201953D01*
X139221571Y-183101605D01*
X139221564Y-183101603D01*
X139221562Y-183101602D01*
X138968259Y-183033730D01*
X138910482Y-183026123D01*
X138708270Y-182999500D01*
X138708263Y-182999500D01*
X138446023Y-182999500D01*
X138446015Y-182999500D01*
X138214915Y-183029926D01*
X138186027Y-183033730D01*
X138017651Y-183078846D01*
X137932724Y-183101602D01*
X137932714Y-183101605D01*
X137690452Y-183201953D01*
X137690442Y-183201958D01*
X137463339Y-183333075D01*
X137255291Y-183492718D01*
X137069861Y-183678148D01*
X136910218Y-183886196D01*
X136779101Y-184113299D01*
X136779096Y-184113309D01*
X136678748Y-184355571D01*
X136678745Y-184355581D01*
X136610873Y-184608885D01*
X136576643Y-184868872D01*
X135497642Y-184868872D01*
X135497642Y-183452128D01*
X135491234Y-183392517D01*
X135486533Y-183379914D01*
X135440940Y-183257671D01*
X135440936Y-183257664D01*
X135354690Y-183142455D01*
X135354687Y-183142452D01*
X135239478Y-183056206D01*
X135239471Y-183056202D01*
X135104625Y-183005908D01*
X135104626Y-183005908D01*
X135045026Y-182999501D01*
X135045024Y-182999500D01*
X135045016Y-182999500D01*
X135045008Y-182999500D01*
X134871643Y-182999500D01*
X134804604Y-182979815D01*
X134758849Y-182927011D01*
X134747643Y-182875500D01*
X134747643Y-182072193D01*
X134756287Y-182042752D01*
X134762811Y-182012766D01*
X134766565Y-182007750D01*
X134767328Y-182005154D01*
X134783962Y-181984512D01*
X134847321Y-181921153D01*
X142199500Y-181921153D01*
X142199500Y-182078846D01*
X142230261Y-182233489D01*
X142230264Y-182233501D01*
X142290602Y-182379172D01*
X142290609Y-182379185D01*
X142378210Y-182510288D01*
X142378213Y-182510292D01*
X142489707Y-182621786D01*
X142489711Y-182621789D01*
X142620814Y-182709390D01*
X142620827Y-182709397D01*
X142758683Y-182766498D01*
X142766503Y-182769737D01*
X142921153Y-182800499D01*
X142921156Y-182800500D01*
X142921158Y-182800500D01*
X143078844Y-182800500D01*
X143078845Y-182800499D01*
X143233497Y-182769737D01*
X143379179Y-182709394D01*
X143510289Y-182621789D01*
X143621789Y-182510289D01*
X143709394Y-182379179D01*
X143769737Y-182233497D01*
X143789113Y-182136085D01*
X143800638Y-182078150D01*
X143833023Y-182016239D01*
X143834515Y-182014719D01*
X144480520Y-181368716D01*
X144559577Y-181231784D01*
X144600501Y-181079057D01*
X144600501Y-180920942D01*
X144600501Y-180913347D01*
X144600500Y-180913329D01*
X144600500Y-178579765D01*
X144620185Y-178512726D01*
X144621398Y-178510874D01*
X144629710Y-178498435D01*
X144709394Y-178379179D01*
X144769737Y-178233497D01*
X144800500Y-178078842D01*
X144800500Y-177921158D01*
X144800500Y-177921155D01*
X144800499Y-177921153D01*
X144769738Y-177766510D01*
X144769737Y-177766503D01*
X144769735Y-177766498D01*
X144709397Y-177620827D01*
X144709390Y-177620814D01*
X144621789Y-177489711D01*
X144621786Y-177489707D01*
X144510292Y-177378213D01*
X144510288Y-177378210D01*
X144379185Y-177290609D01*
X144379172Y-177290602D01*
X144233501Y-177230264D01*
X144233489Y-177230261D01*
X144078845Y-177199500D01*
X144078842Y-177199500D01*
X143921158Y-177199500D01*
X143921155Y-177199500D01*
X143766510Y-177230261D01*
X143766498Y-177230264D01*
X143620827Y-177290602D01*
X143620814Y-177290609D01*
X143489711Y-177378210D01*
X143489707Y-177378213D01*
X143378213Y-177489707D01*
X143378210Y-177489711D01*
X143290609Y-177620814D01*
X143290602Y-177620827D01*
X143230264Y-177766498D01*
X143230261Y-177766510D01*
X143199500Y-177921153D01*
X143199500Y-178078846D01*
X143230261Y-178233489D01*
X143230264Y-178233501D01*
X143290602Y-178379172D01*
X143290609Y-178379185D01*
X143378602Y-178510874D01*
X143399480Y-178577551D01*
X143399500Y-178579765D01*
X143399500Y-180699902D01*
X143379815Y-180766941D01*
X143363181Y-180787583D01*
X142985339Y-181165425D01*
X142924016Y-181198910D01*
X142921850Y-181199361D01*
X142766508Y-181230261D01*
X142766498Y-181230264D01*
X142620827Y-181290602D01*
X142620814Y-181290609D01*
X142489711Y-181378210D01*
X142489707Y-181378213D01*
X142378213Y-181489707D01*
X142378210Y-181489711D01*
X142290609Y-181620814D01*
X142290602Y-181620827D01*
X142230264Y-181766498D01*
X142230261Y-181766510D01*
X142199500Y-181921153D01*
X134847321Y-181921153D01*
X134941089Y-181827385D01*
X135921023Y-180847451D01*
X137003828Y-179764646D01*
X137119524Y-179605405D01*
X137208884Y-179430026D01*
X137269709Y-179242826D01*
X137295681Y-179078846D01*
X137300500Y-179048422D01*
X137300500Y-176938137D01*
X137320185Y-176871098D01*
X137372989Y-176825343D01*
X137419286Y-176817160D01*
X138015745Y-176220700D01*
X138044994Y-176291312D01*
X138112298Y-176392040D01*
X138197960Y-176477702D01*
X138298688Y-176545006D01*
X138369298Y-176574253D01*
X137776376Y-177167174D01*
X137844446Y-177216630D01*
X138043946Y-177318281D01*
X138256896Y-177387473D01*
X138478042Y-177422500D01*
X138701958Y-177422500D01*
X138923103Y-177387473D01*
X139136053Y-177318281D01*
X139335552Y-177216631D01*
X139403621Y-177167174D01*
X139403622Y-177167174D01*
X138810701Y-176574253D01*
X138881312Y-176545006D01*
X138982040Y-176477702D01*
X139067702Y-176392040D01*
X139135006Y-176291312D01*
X139164253Y-176220701D01*
X139757174Y-176813622D01*
X139757174Y-176813621D01*
X139806631Y-176745552D01*
X139908281Y-176546053D01*
X139977473Y-176333103D01*
X140012500Y-176111958D01*
X140012500Y-175888041D01*
X139977473Y-175666896D01*
X139908281Y-175453946D01*
X139806630Y-175254446D01*
X139757174Y-175186377D01*
X139757174Y-175186376D01*
X139164253Y-175779297D01*
X139135006Y-175708688D01*
X139067702Y-175607960D01*
X138982040Y-175522298D01*
X138881312Y-175454994D01*
X138810699Y-175425745D01*
X139315293Y-174921153D01*
X143199500Y-174921153D01*
X143199500Y-175078846D01*
X143230261Y-175233489D01*
X143230264Y-175233501D01*
X143290602Y-175379172D01*
X143290609Y-175379185D01*
X143378210Y-175510288D01*
X143378213Y-175510292D01*
X143489707Y-175621786D01*
X143489711Y-175621789D01*
X143620814Y-175709390D01*
X143620827Y-175709397D01*
X143766498Y-175769735D01*
X143766503Y-175769737D01*
X143908796Y-175798041D01*
X143921153Y-175800499D01*
X143921156Y-175800500D01*
X143921158Y-175800500D01*
X144078844Y-175800500D01*
X144078845Y-175800499D01*
X144233497Y-175769737D01*
X144379179Y-175709394D01*
X144510289Y-175621789D01*
X144621789Y-175510289D01*
X144709394Y-175379179D01*
X144769737Y-175233497D01*
X144800500Y-175078842D01*
X144800500Y-174921158D01*
X144800500Y-174921155D01*
X144800499Y-174921153D01*
X144783396Y-174835171D01*
X144769737Y-174766503D01*
X144754946Y-174730793D01*
X144709397Y-174620827D01*
X144709390Y-174620814D01*
X144621398Y-174489125D01*
X144600520Y-174422447D01*
X144600500Y-174420234D01*
X144600500Y-172724500D01*
X144620185Y-172657461D01*
X144672989Y-172611706D01*
X144724500Y-172600500D01*
X152420234Y-172600500D01*
X152487273Y-172620185D01*
X152489125Y-172621398D01*
X152620814Y-172709390D01*
X152620827Y-172709397D01*
X152748828Y-172762416D01*
X152766503Y-172769737D01*
X152912285Y-172798735D01*
X152921153Y-172800499D01*
X152921156Y-172800500D01*
X152921158Y-172800500D01*
X153078844Y-172800500D01*
X153078845Y-172800499D01*
X153233497Y-172769737D01*
X153379179Y-172709394D01*
X153510289Y-172621789D01*
X153621789Y-172510289D01*
X153709394Y-172379179D01*
X153769737Y-172233497D01*
X153800500Y-172078842D01*
X153800500Y-171921158D01*
X153800500Y-171921155D01*
X153800499Y-171921153D01*
X153781847Y-171827385D01*
X153769737Y-171766503D01*
X153716656Y-171638352D01*
X153709397Y-171620827D01*
X153709390Y-171620814D01*
X153621789Y-171489711D01*
X153621786Y-171489707D01*
X153510292Y-171378213D01*
X153510288Y-171378210D01*
X153379185Y-171290609D01*
X153379172Y-171290602D01*
X153233501Y-171230264D01*
X153233489Y-171230261D01*
X153078845Y-171199500D01*
X153078842Y-171199500D01*
X152921158Y-171199500D01*
X152921155Y-171199500D01*
X152766510Y-171230261D01*
X152766498Y-171230264D01*
X152620827Y-171290602D01*
X152620814Y-171290609D01*
X152489125Y-171378602D01*
X152422447Y-171399480D01*
X152420234Y-171399500D01*
X143920943Y-171399500D01*
X143768216Y-171440423D01*
X143768209Y-171440426D01*
X143631290Y-171519475D01*
X143631282Y-171519481D01*
X143519481Y-171631282D01*
X143519475Y-171631290D01*
X143440426Y-171768209D01*
X143440423Y-171768216D01*
X143399500Y-171920943D01*
X143399500Y-174420234D01*
X143379815Y-174487273D01*
X143378602Y-174489125D01*
X143290609Y-174620814D01*
X143290602Y-174620827D01*
X143230264Y-174766498D01*
X143230261Y-174766510D01*
X143199500Y-174921153D01*
X139315293Y-174921153D01*
X139403622Y-174832824D01*
X139403621Y-174832822D01*
X139335556Y-174783371D01*
X139136053Y-174681718D01*
X138923103Y-174612526D01*
X138701958Y-174577500D01*
X138478042Y-174577500D01*
X138256896Y-174612526D01*
X138043946Y-174681718D01*
X137844450Y-174783367D01*
X137776377Y-174832824D01*
X137776377Y-174832825D01*
X138369298Y-175425746D01*
X138298688Y-175454994D01*
X138197960Y-175522298D01*
X138112298Y-175607960D01*
X138044994Y-175708688D01*
X138015746Y-175779298D01*
X137422825Y-175186377D01*
X137422823Y-175186377D01*
X137420626Y-175189402D01*
X137365295Y-175232067D01*
X137295682Y-175238046D01*
X137233887Y-175205440D01*
X137219990Y-175189402D01*
X137135403Y-175072978D01*
X136977022Y-174914597D01*
X136795814Y-174782941D01*
X136596246Y-174681255D01*
X136383220Y-174612039D01*
X136362164Y-174608704D01*
X136161993Y-174577000D01*
X135938007Y-174577000D01*
X135853845Y-174590330D01*
X135716779Y-174612039D01*
X135503753Y-174681255D01*
X135304185Y-174782941D01*
X135232298Y-174835171D01*
X135122978Y-174914597D01*
X135122976Y-174914599D01*
X135122974Y-174914600D01*
X135101318Y-174936256D01*
X135039995Y-174969740D01*
X134970303Y-174964754D01*
X134914370Y-174922881D01*
X134897459Y-174891911D01*
X134876296Y-174835169D01*
X134876295Y-174835167D01*
X134876293Y-174835164D01*
X134790047Y-174719955D01*
X134790044Y-174719952D01*
X134674835Y-174633706D01*
X134674828Y-174633702D01*
X134539981Y-174583408D01*
X134534618Y-174582141D01*
X134473901Y-174547569D01*
X134441514Y-174485658D01*
X134447740Y-174416067D01*
X134475447Y-174373786D01*
X135014662Y-173834572D01*
X135075983Y-173801089D01*
X135078150Y-173800638D01*
X135140602Y-173788215D01*
X135233497Y-173769737D01*
X135379179Y-173709394D01*
X135510289Y-173621789D01*
X135621789Y-173510289D01*
X135709394Y-173379179D01*
X135769737Y-173233497D01*
X135800500Y-173078842D01*
X135800500Y-172921158D01*
X135800500Y-172921155D01*
X135800499Y-172921153D01*
X135793546Y-172886197D01*
X135769737Y-172766503D01*
X135762710Y-172749539D01*
X135709397Y-172620827D01*
X135709390Y-172620814D01*
X135621789Y-172489711D01*
X135621786Y-172489707D01*
X135510292Y-172378213D01*
X135510288Y-172378210D01*
X135379185Y-172290609D01*
X135379172Y-172290602D01*
X135233501Y-172230264D01*
X135233489Y-172230261D01*
X135078845Y-172199500D01*
X135078842Y-172199500D01*
X134921158Y-172199500D01*
X134921155Y-172199500D01*
X134766510Y-172230261D01*
X134766498Y-172230264D01*
X134620827Y-172290602D01*
X134620814Y-172290609D01*
X134489711Y-172378210D01*
X134489707Y-172378213D01*
X134378213Y-172489707D01*
X134378210Y-172489711D01*
X134290609Y-172620814D01*
X134290602Y-172620827D01*
X134230264Y-172766498D01*
X134230261Y-172766508D01*
X134199361Y-172921850D01*
X134166976Y-172983761D01*
X134165425Y-172985339D01*
X133029482Y-174121281D01*
X133029478Y-174121287D01*
X132984322Y-174199500D01*
X132950424Y-174258212D01*
X132950423Y-174258213D01*
X132929961Y-174334579D01*
X132909499Y-174410943D01*
X132909499Y-174410945D01*
X132909499Y-174453000D01*
X132889814Y-174520039D01*
X132837010Y-174565794D01*
X132785499Y-174577000D01*
X132539630Y-174577000D01*
X132539623Y-174577001D01*
X132480016Y-174583408D01*
X132345171Y-174633702D01*
X132345164Y-174633706D01*
X132229955Y-174719952D01*
X132229952Y-174719955D01*
X132143706Y-174835164D01*
X132143702Y-174835171D01*
X132093408Y-174970017D01*
X132087001Y-175029616D01*
X132087000Y-175029635D01*
X132087000Y-176970370D01*
X132087001Y-176970376D01*
X132093408Y-177029983D01*
X132143702Y-177164828D01*
X132143706Y-177164835D01*
X132229952Y-177280044D01*
X132229955Y-177280047D01*
X132345164Y-177366293D01*
X132345171Y-177366297D01*
X132480017Y-177416591D01*
X132480016Y-177416591D01*
X132486944Y-177417335D01*
X132539627Y-177423000D01*
X134480372Y-177422999D01*
X134539983Y-177416591D01*
X134632169Y-177382207D01*
X134701858Y-177377224D01*
X134763181Y-177410709D01*
X134796666Y-177472032D01*
X134799500Y-177498390D01*
X134799500Y-178380664D01*
X134779815Y-178447703D01*
X134763181Y-178468345D01*
X132543317Y-180688208D01*
X132543317Y-180688209D01*
X132543315Y-180688211D01*
X132534821Y-180699902D01*
X132427619Y-180847451D01*
X132338258Y-181022830D01*
X132338256Y-181022836D01*
X132284027Y-181189741D01*
X132284026Y-181189745D01*
X132277434Y-181210029D01*
X132277433Y-181210036D01*
X132246643Y-181404434D01*
X132246643Y-182875500D01*
X132226958Y-182942539D01*
X132174154Y-182988294D01*
X132122644Y-182999500D01*
X131949273Y-182999500D01*
X131949266Y-182999501D01*
X131889659Y-183005908D01*
X131754814Y-183056202D01*
X131754807Y-183056206D01*
X131639598Y-183142452D01*
X131639595Y-183142455D01*
X131553349Y-183257664D01*
X131553345Y-183257671D01*
X131503051Y-183392517D01*
X131496644Y-183452116D01*
X131496644Y-183452123D01*
X131496643Y-183452135D01*
X113320392Y-183452135D01*
X113165232Y-183333075D01*
X112938129Y-183201958D01*
X112938119Y-183201953D01*
X112695857Y-183101605D01*
X112695850Y-183101603D01*
X112695848Y-183101602D01*
X112442545Y-183033730D01*
X112384768Y-183026123D01*
X112182556Y-182999500D01*
X112182549Y-182999500D01*
X111920309Y-182999500D01*
X111920301Y-182999500D01*
X111689201Y-183029926D01*
X111660313Y-183033730D01*
X111491937Y-183078846D01*
X111407010Y-183101602D01*
X111407000Y-183101605D01*
X111164738Y-183201953D01*
X111164728Y-183201958D01*
X110937625Y-183333075D01*
X110729577Y-183492718D01*
X110544147Y-183678148D01*
X110384504Y-183886196D01*
X110253387Y-184113299D01*
X110253382Y-184113309D01*
X110153034Y-184355571D01*
X110153031Y-184355581D01*
X110085159Y-184608885D01*
X110050929Y-184868872D01*
X108971928Y-184868872D01*
X108971928Y-183452128D01*
X108965520Y-183392517D01*
X108960819Y-183379914D01*
X108915226Y-183257671D01*
X108915222Y-183257664D01*
X108828976Y-183142455D01*
X108828973Y-183142452D01*
X108713764Y-183056206D01*
X108713757Y-183056202D01*
X108578911Y-183005908D01*
X108578912Y-183005908D01*
X108519312Y-182999501D01*
X108519310Y-182999500D01*
X108519302Y-182999500D01*
X108519294Y-182999500D01*
X108345929Y-182999500D01*
X108278890Y-182979815D01*
X108233135Y-182927011D01*
X108221929Y-182875500D01*
X108221929Y-182597907D01*
X108241614Y-182530868D01*
X108258248Y-182510226D01*
X109364040Y-181404434D01*
X110473829Y-180294645D01*
X110589524Y-180135405D01*
X110678884Y-179960026D01*
X110708228Y-179869712D01*
X110747664Y-179812039D01*
X110812022Y-179784840D01*
X110850347Y-179786414D01*
X110901479Y-179796585D01*
X110921157Y-179800500D01*
X110921158Y-179800500D01*
X111078844Y-179800500D01*
X111078845Y-179800499D01*
X111233497Y-179769737D01*
X111379179Y-179709394D01*
X111379185Y-179709390D01*
X111510875Y-179621398D01*
X111577553Y-179600520D01*
X111579766Y-179600500D01*
X112420234Y-179600500D01*
X112487273Y-179620185D01*
X112489125Y-179621398D01*
X112620814Y-179709390D01*
X112620827Y-179709397D01*
X112754217Y-179764648D01*
X112766503Y-179769737D01*
X112921153Y-179800499D01*
X112921156Y-179800500D01*
X112921158Y-179800500D01*
X113078844Y-179800500D01*
X113078845Y-179800499D01*
X113233497Y-179769737D01*
X113379179Y-179709394D01*
X113510289Y-179621789D01*
X113621789Y-179510289D01*
X113709394Y-179379179D01*
X113769737Y-179233497D01*
X113800500Y-179078842D01*
X113800500Y-178921158D01*
X113800500Y-178921155D01*
X113800499Y-178921153D01*
X113794729Y-178892147D01*
X113769737Y-178766503D01*
X113763182Y-178750678D01*
X113709397Y-178620827D01*
X113709390Y-178620814D01*
X113621789Y-178489711D01*
X113621786Y-178489707D01*
X113510292Y-178378213D01*
X113510288Y-178378210D01*
X113379185Y-178290609D01*
X113379172Y-178290602D01*
X113233501Y-178230264D01*
X113233489Y-178230261D01*
X113078845Y-178199500D01*
X113078842Y-178199500D01*
X112921158Y-178199500D01*
X112921155Y-178199500D01*
X112766510Y-178230261D01*
X112766498Y-178230264D01*
X112620827Y-178290602D01*
X112620814Y-178290609D01*
X112489125Y-178378602D01*
X112422447Y-178399480D01*
X112420234Y-178399500D01*
X111579766Y-178399500D01*
X111512727Y-178379815D01*
X111510875Y-178378602D01*
X111379185Y-178290609D01*
X111379172Y-178290602D01*
X111233501Y-178230264D01*
X111233489Y-178230261D01*
X111078845Y-178199500D01*
X111078842Y-178199500D01*
X110921158Y-178199500D01*
X110921157Y-178199500D01*
X110918688Y-178199991D01*
X110917369Y-178199872D01*
X110915095Y-178200097D01*
X110915052Y-178199665D01*
X110849097Y-178193762D01*
X110793921Y-178150897D01*
X110770678Y-178085007D01*
X110770500Y-178078373D01*
X110770500Y-177921153D01*
X119199500Y-177921153D01*
X119199500Y-178078846D01*
X119230261Y-178233489D01*
X119230264Y-178233501D01*
X119290602Y-178379172D01*
X119290609Y-178379185D01*
X119378602Y-178510874D01*
X119399480Y-178577551D01*
X119399500Y-178579765D01*
X119399500Y-180420234D01*
X119379815Y-180487273D01*
X119378602Y-180489125D01*
X119290609Y-180620814D01*
X119290602Y-180620827D01*
X119230264Y-180766498D01*
X119230261Y-180766510D01*
X119199500Y-180921153D01*
X119199500Y-181078846D01*
X119230261Y-181233489D01*
X119230264Y-181233501D01*
X119290602Y-181379172D01*
X119290609Y-181379185D01*
X119378210Y-181510288D01*
X119378213Y-181510292D01*
X119489707Y-181621786D01*
X119489711Y-181621789D01*
X119620814Y-181709390D01*
X119620827Y-181709397D01*
X119758683Y-181766498D01*
X119766503Y-181769737D01*
X119921153Y-181800499D01*
X119921156Y-181800500D01*
X119921158Y-181800500D01*
X120078844Y-181800500D01*
X120078845Y-181800499D01*
X120233497Y-181769737D01*
X120379179Y-181709394D01*
X120510289Y-181621789D01*
X120621789Y-181510289D01*
X120709394Y-181379179D01*
X120713728Y-181368717D01*
X120723067Y-181346166D01*
X120769737Y-181233497D01*
X120800500Y-181078842D01*
X120800500Y-180921158D01*
X120800500Y-180921155D01*
X120800499Y-180921153D01*
X120785839Y-180847452D01*
X120769737Y-180766503D01*
X120737307Y-180688209D01*
X120709397Y-180620827D01*
X120709390Y-180620814D01*
X120621398Y-180489125D01*
X120600520Y-180422447D01*
X120600500Y-180420234D01*
X120600500Y-178579765D01*
X120620185Y-178512726D01*
X120621398Y-178510874D01*
X120629710Y-178498435D01*
X120709394Y-178379179D01*
X120769737Y-178233497D01*
X120800500Y-178078842D01*
X120800500Y-177921158D01*
X120800500Y-177921155D01*
X120800499Y-177921153D01*
X120769738Y-177766510D01*
X120769737Y-177766503D01*
X120769735Y-177766498D01*
X120709397Y-177620827D01*
X120709390Y-177620814D01*
X120621789Y-177489711D01*
X120621786Y-177489707D01*
X120510292Y-177378213D01*
X120510288Y-177378210D01*
X120379185Y-177290609D01*
X120379172Y-177290602D01*
X120233501Y-177230264D01*
X120233489Y-177230261D01*
X120078845Y-177199500D01*
X120078842Y-177199500D01*
X119921158Y-177199500D01*
X119921155Y-177199500D01*
X119766510Y-177230261D01*
X119766498Y-177230264D01*
X119620827Y-177290602D01*
X119620814Y-177290609D01*
X119489711Y-177378210D01*
X119489707Y-177378213D01*
X119378213Y-177489707D01*
X119378210Y-177489711D01*
X119290609Y-177620814D01*
X119290602Y-177620827D01*
X119230264Y-177766498D01*
X119230261Y-177766510D01*
X119199500Y-177921153D01*
X110770500Y-177921153D01*
X110770500Y-176938137D01*
X110790185Y-176871098D01*
X110842989Y-176825343D01*
X110889286Y-176817160D01*
X111485745Y-176220700D01*
X111514994Y-176291312D01*
X111582298Y-176392040D01*
X111667960Y-176477702D01*
X111768688Y-176545006D01*
X111839298Y-176574253D01*
X111246376Y-177167174D01*
X111314446Y-177216630D01*
X111513946Y-177318281D01*
X111726896Y-177387473D01*
X111948042Y-177422500D01*
X112171958Y-177422500D01*
X112393103Y-177387473D01*
X112606053Y-177318281D01*
X112805552Y-177216631D01*
X112873621Y-177167174D01*
X112873622Y-177167174D01*
X112280701Y-176574253D01*
X112351312Y-176545006D01*
X112452040Y-176477702D01*
X112537702Y-176392040D01*
X112605006Y-176291312D01*
X112634253Y-176220701D01*
X113227174Y-176813622D01*
X113227174Y-176813621D01*
X113276631Y-176745552D01*
X113378281Y-176546053D01*
X113447473Y-176333103D01*
X113482500Y-176111958D01*
X113482500Y-175888041D01*
X113447473Y-175666896D01*
X113378281Y-175453946D01*
X113276630Y-175254446D01*
X113227174Y-175186377D01*
X113227174Y-175186376D01*
X112634253Y-175779297D01*
X112605006Y-175708688D01*
X112537702Y-175607960D01*
X112452040Y-175522298D01*
X112351312Y-175454994D01*
X112280699Y-175425745D01*
X112873622Y-174832824D01*
X112873621Y-174832822D01*
X112805556Y-174783371D01*
X112606053Y-174681718D01*
X112393103Y-174612526D01*
X112171958Y-174577500D01*
X111948042Y-174577500D01*
X111726896Y-174612526D01*
X111513946Y-174681718D01*
X111314450Y-174783367D01*
X111246377Y-174832824D01*
X111246377Y-174832825D01*
X111839298Y-175425746D01*
X111768688Y-175454994D01*
X111667960Y-175522298D01*
X111582298Y-175607960D01*
X111514994Y-175708688D01*
X111485746Y-175779298D01*
X110892825Y-175186377D01*
X110892823Y-175186377D01*
X110890626Y-175189402D01*
X110835295Y-175232067D01*
X110765682Y-175238046D01*
X110703887Y-175205440D01*
X110689990Y-175189402D01*
X110605403Y-175072978D01*
X110447022Y-174914597D01*
X110265814Y-174782941D01*
X110066246Y-174681255D01*
X109853220Y-174612039D01*
X109832164Y-174608704D01*
X109631993Y-174577000D01*
X109408007Y-174577000D01*
X109323845Y-174590330D01*
X109186779Y-174612039D01*
X108973753Y-174681255D01*
X108774185Y-174782941D01*
X108702298Y-174835171D01*
X108592978Y-174914597D01*
X108592976Y-174914599D01*
X108592974Y-174914600D01*
X108571318Y-174936256D01*
X108509995Y-174969740D01*
X108440303Y-174964754D01*
X108384370Y-174922881D01*
X108367459Y-174891911D01*
X108346296Y-174835169D01*
X108346295Y-174835167D01*
X108346293Y-174835164D01*
X108260047Y-174719955D01*
X108260044Y-174719952D01*
X108144835Y-174633706D01*
X108144828Y-174633702D01*
X108009982Y-174583408D01*
X108009983Y-174583408D01*
X107950383Y-174577001D01*
X107950381Y-174577000D01*
X107950373Y-174577000D01*
X107950365Y-174577000D01*
X107704500Y-174577000D01*
X107695814Y-174574449D01*
X107686853Y-174575738D01*
X107662812Y-174564759D01*
X107637461Y-174557315D01*
X107631533Y-174550474D01*
X107623297Y-174546713D01*
X107609007Y-174524478D01*
X107591706Y-174504511D01*
X107589418Y-174493996D01*
X107585523Y-174487935D01*
X107580500Y-174453000D01*
X107580500Y-174320097D01*
X107600185Y-174253058D01*
X107616819Y-174232416D01*
X107774382Y-174074853D01*
X108014662Y-173834572D01*
X108075983Y-173801089D01*
X108078150Y-173800638D01*
X108140602Y-173788215D01*
X108233497Y-173769737D01*
X108379179Y-173709394D01*
X108510289Y-173621789D01*
X108621789Y-173510289D01*
X108709394Y-173379179D01*
X108769737Y-173233497D01*
X108800500Y-173078842D01*
X108800500Y-172921158D01*
X108800500Y-172921155D01*
X108800499Y-172921153D01*
X108793546Y-172886197D01*
X108769737Y-172766503D01*
X108769732Y-172766492D01*
X108767969Y-172760676D01*
X108770720Y-172759841D01*
X108764497Y-172702641D01*
X108795691Y-172640122D01*
X108855734Y-172604392D01*
X108886555Y-172600500D01*
X116699903Y-172600500D01*
X116766942Y-172620185D01*
X116787583Y-172636818D01*
X117631284Y-173480520D01*
X117631286Y-173480521D01*
X117631290Y-173480524D01*
X117768209Y-173559573D01*
X117768216Y-173559577D01*
X117920943Y-173600501D01*
X117920945Y-173600501D01*
X118086654Y-173600501D01*
X118086670Y-173600500D01*
X125420234Y-173600500D01*
X125487273Y-173620185D01*
X125489125Y-173621398D01*
X125620814Y-173709390D01*
X125620827Y-173709397D01*
X125690114Y-173738096D01*
X125766503Y-173769737D01*
X125859398Y-173788215D01*
X125921153Y-173800499D01*
X125921156Y-173800500D01*
X125921158Y-173800500D01*
X126078844Y-173800500D01*
X126078845Y-173800499D01*
X126233497Y-173769737D01*
X126379179Y-173709394D01*
X126510289Y-173621789D01*
X126621789Y-173510289D01*
X126709394Y-173379179D01*
X126769737Y-173233497D01*
X126800500Y-173078842D01*
X126800500Y-172921158D01*
X126800500Y-172921155D01*
X126800499Y-172921153D01*
X126793546Y-172886197D01*
X126769737Y-172766503D01*
X126762710Y-172749539D01*
X126709397Y-172620827D01*
X126709390Y-172620814D01*
X126621789Y-172489711D01*
X126621786Y-172489707D01*
X126510292Y-172378213D01*
X126510288Y-172378210D01*
X126379185Y-172290609D01*
X126379172Y-172290602D01*
X126233501Y-172230264D01*
X126233489Y-172230261D01*
X126078845Y-172199500D01*
X126078842Y-172199500D01*
X125921158Y-172199500D01*
X125921155Y-172199500D01*
X125766510Y-172230261D01*
X125766498Y-172230264D01*
X125620827Y-172290602D01*
X125620814Y-172290609D01*
X125489125Y-172378602D01*
X125422447Y-172399480D01*
X125420234Y-172399500D01*
X118300098Y-172399500D01*
X118233059Y-172379815D01*
X118212417Y-172363181D01*
X117487590Y-171638355D01*
X117487588Y-171638352D01*
X117368717Y-171519481D01*
X117368716Y-171519480D01*
X117281904Y-171469360D01*
X117281904Y-171469359D01*
X117281900Y-171469358D01*
X117231785Y-171440423D01*
X117079057Y-171399499D01*
X116920943Y-171399499D01*
X116913347Y-171399499D01*
X116913331Y-171399500D01*
X104579766Y-171399500D01*
X104512727Y-171379815D01*
X104510875Y-171378602D01*
X104379185Y-171290609D01*
X104379172Y-171290602D01*
X104233501Y-171230264D01*
X104233489Y-171230261D01*
X104078845Y-171199500D01*
X104078842Y-171199500D01*
X103921158Y-171199500D01*
X103921155Y-171199500D01*
X103766510Y-171230261D01*
X103766498Y-171230264D01*
X103620827Y-171290602D01*
X103620814Y-171290609D01*
X103489711Y-171378210D01*
X103489707Y-171378213D01*
X103378213Y-171489707D01*
X103378210Y-171489711D01*
X103290609Y-171620814D01*
X103290602Y-171620827D01*
X103230264Y-171766498D01*
X103230261Y-171766510D01*
X103199500Y-171921153D01*
X81928082Y-171921153D01*
X82021850Y-171827385D01*
X82210881Y-171638355D01*
X83212417Y-170636819D01*
X83273740Y-170603334D01*
X83300098Y-170600500D01*
X87913331Y-170600500D01*
X87913347Y-170600501D01*
X87920943Y-170600501D01*
X88079054Y-170600501D01*
X88079057Y-170600501D01*
X88231785Y-170559577D01*
X88281904Y-170530639D01*
X88368716Y-170480520D01*
X88480520Y-170368716D01*
X88480520Y-170368714D01*
X88490728Y-170358507D01*
X88490730Y-170358504D01*
X90368713Y-168480521D01*
X90368716Y-168480520D01*
X90480520Y-168368716D01*
X90530639Y-168281904D01*
X90559577Y-168231785D01*
X90600500Y-168079057D01*
X90600500Y-167920943D01*
X90600500Y-166921153D01*
X98199500Y-166921153D01*
X98199500Y-167078846D01*
X98230261Y-167233489D01*
X98230264Y-167233501D01*
X98290602Y-167379172D01*
X98290609Y-167379185D01*
X98378602Y-167510874D01*
X98399480Y-167577551D01*
X98399500Y-167579765D01*
X98399500Y-168420234D01*
X98379815Y-168487273D01*
X98378602Y-168489125D01*
X98290609Y-168620814D01*
X98290602Y-168620827D01*
X98230264Y-168766498D01*
X98230261Y-168766510D01*
X98199500Y-168921153D01*
X98199500Y-169078846D01*
X98230261Y-169233489D01*
X98230264Y-169233501D01*
X98290602Y-169379172D01*
X98290609Y-169379185D01*
X98378210Y-169510288D01*
X98378213Y-169510292D01*
X98489707Y-169621786D01*
X98489711Y-169621789D01*
X98620814Y-169709390D01*
X98620827Y-169709397D01*
X98766498Y-169769735D01*
X98766503Y-169769737D01*
X98921153Y-169800499D01*
X98921156Y-169800500D01*
X98921158Y-169800500D01*
X99078844Y-169800500D01*
X99078845Y-169800499D01*
X99233497Y-169769737D01*
X99379179Y-169709394D01*
X99510289Y-169621789D01*
X99621789Y-169510289D01*
X99709394Y-169379179D01*
X99769737Y-169233497D01*
X99800500Y-169078842D01*
X99800500Y-168921158D01*
X99800500Y-168921155D01*
X99800499Y-168921153D01*
X99769738Y-168766510D01*
X99769737Y-168766503D01*
X99709794Y-168621786D01*
X99709397Y-168620827D01*
X99709390Y-168620814D01*
X99621398Y-168489125D01*
X99600520Y-168422447D01*
X99600500Y-168420234D01*
X99600500Y-167579765D01*
X99620185Y-167512726D01*
X99621398Y-167510874D01*
X99709390Y-167379185D01*
X99709390Y-167379184D01*
X99709394Y-167379179D01*
X99769737Y-167233497D01*
X99800500Y-167078842D01*
X99800500Y-166921158D01*
X99800500Y-166921155D01*
X99800499Y-166921153D01*
X99769738Y-166766510D01*
X99769737Y-166766503D01*
X99709794Y-166621786D01*
X99709397Y-166620827D01*
X99709390Y-166620814D01*
X99621789Y-166489711D01*
X99621786Y-166489707D01*
X99510292Y-166378213D01*
X99510288Y-166378210D01*
X99379185Y-166290609D01*
X99379172Y-166290602D01*
X99233501Y-166230264D01*
X99233489Y-166230261D01*
X99078845Y-166199500D01*
X99078842Y-166199500D01*
X98921158Y-166199500D01*
X98921155Y-166199500D01*
X98766510Y-166230261D01*
X98766498Y-166230264D01*
X98620827Y-166290602D01*
X98620814Y-166290609D01*
X98489711Y-166378210D01*
X98489707Y-166378213D01*
X98378213Y-166489707D01*
X98378210Y-166489711D01*
X98290609Y-166620814D01*
X98290602Y-166620827D01*
X98230264Y-166766498D01*
X98230261Y-166766510D01*
X98199500Y-166921153D01*
X90600500Y-166921153D01*
X90600500Y-163089060D01*
X90600501Y-163089047D01*
X90600501Y-162920944D01*
X90600501Y-162920943D01*
X90559577Y-162768216D01*
X90525618Y-162709397D01*
X90480524Y-162631290D01*
X90480518Y-162631282D01*
X89487590Y-161638355D01*
X89487588Y-161638352D01*
X89368717Y-161519481D01*
X89368716Y-161519480D01*
X89281904Y-161469360D01*
X89281904Y-161469359D01*
X89281900Y-161469358D01*
X89231785Y-161440423D01*
X89079057Y-161399499D01*
X88920943Y-161399499D01*
X88913347Y-161399499D01*
X88913331Y-161399500D01*
X83579766Y-161399500D01*
X83512727Y-161379815D01*
X83510875Y-161378602D01*
X83379185Y-161290609D01*
X83379172Y-161290602D01*
X83233501Y-161230264D01*
X83233489Y-161230261D01*
X83078845Y-161199500D01*
X83078842Y-161199500D01*
X82921158Y-161199500D01*
X82921155Y-161199500D01*
X82766510Y-161230261D01*
X82766498Y-161230264D01*
X82620827Y-161290602D01*
X82620814Y-161290609D01*
X82489711Y-161378210D01*
X82489707Y-161378213D01*
X82378213Y-161489707D01*
X82378210Y-161489711D01*
X82290609Y-161620814D01*
X82290602Y-161620827D01*
X82230264Y-161766498D01*
X82230261Y-161766510D01*
X82199500Y-161921153D01*
X82199500Y-162078846D01*
X82230261Y-162233489D01*
X82230264Y-162233501D01*
X82290602Y-162379172D01*
X82290609Y-162379185D01*
X82378210Y-162510288D01*
X82378213Y-162510292D01*
X82489707Y-162621786D01*
X82489711Y-162621789D01*
X82620814Y-162709390D01*
X82620827Y-162709397D01*
X82762814Y-162768209D01*
X82766503Y-162769737D01*
X82921153Y-162800499D01*
X82921156Y-162800500D01*
X82921158Y-162800500D01*
X83078844Y-162800500D01*
X83078845Y-162800499D01*
X83233497Y-162769737D01*
X83379179Y-162709394D01*
X83379185Y-162709390D01*
X83510875Y-162621398D01*
X83577553Y-162600520D01*
X83579766Y-162600500D01*
X88699903Y-162600500D01*
X88766942Y-162620185D01*
X88787584Y-162636819D01*
X89363181Y-163212416D01*
X89396666Y-163273739D01*
X89399500Y-163300097D01*
X89399500Y-167699903D01*
X89379815Y-167766942D01*
X89363181Y-167787584D01*
X87787584Y-169363181D01*
X87726261Y-169396666D01*
X87699903Y-169399500D01*
X83086670Y-169399500D01*
X83086654Y-169399499D01*
X83079058Y-169399499D01*
X82920943Y-169399499D01*
X82844579Y-169419961D01*
X82768214Y-169440423D01*
X82768209Y-169440426D01*
X82631290Y-169519475D01*
X82631282Y-169519481D01*
X79969481Y-172181282D01*
X79969479Y-172181285D01*
X79957544Y-172201958D01*
X79940324Y-172231784D01*
X79890423Y-172318215D01*
X79849499Y-172470943D01*
X79849499Y-172470945D01*
X79849499Y-172639046D01*
X79849500Y-172639059D01*
X79849500Y-174453000D01*
X79829815Y-174520039D01*
X79777011Y-174565794D01*
X79725500Y-174577000D01*
X79479630Y-174577000D01*
X79479623Y-174577001D01*
X79420016Y-174583408D01*
X79285171Y-174633702D01*
X79285164Y-174633706D01*
X79169955Y-174719952D01*
X79169952Y-174719955D01*
X79083706Y-174835164D01*
X79083702Y-174835171D01*
X79033408Y-174970017D01*
X79027001Y-175029616D01*
X79027000Y-175029635D01*
X79027000Y-176970370D01*
X79027001Y-176970376D01*
X79033408Y-177029983D01*
X79083702Y-177164828D01*
X79083706Y-177164835D01*
X79169952Y-177280044D01*
X79169955Y-177280047D01*
X79285164Y-177366293D01*
X79285171Y-177366297D01*
X79420017Y-177416591D01*
X79420016Y-177416591D01*
X79426944Y-177417335D01*
X79479627Y-177423000D01*
X81420372Y-177422999D01*
X81479983Y-177416591D01*
X81480093Y-177416549D01*
X81480188Y-177416543D01*
X81487531Y-177414808D01*
X81487812Y-177415997D01*
X81549783Y-177411561D01*
X81611109Y-177445042D01*
X81644598Y-177506363D01*
X81639618Y-177576055D01*
X81611114Y-177620410D01*
X79491888Y-179739637D01*
X79491886Y-179739640D01*
X79467775Y-179772826D01*
X79376190Y-179898880D01*
X79286829Y-180074260D01*
X79275581Y-180108882D01*
X79275580Y-180108885D01*
X79226004Y-180261459D01*
X79195214Y-180455863D01*
X79195214Y-182875500D01*
X79175529Y-182942539D01*
X79122725Y-182988294D01*
X79071215Y-182999500D01*
X78897844Y-182999500D01*
X78897837Y-182999501D01*
X78838230Y-183005908D01*
X78703385Y-183056202D01*
X78703378Y-183056206D01*
X78588169Y-183142452D01*
X78588166Y-183142455D01*
X78501920Y-183257664D01*
X78501916Y-183257671D01*
X78451622Y-183392517D01*
X78445215Y-183452116D01*
X78445215Y-183452123D01*
X78445214Y-183452135D01*
X65660645Y-183452135D01*
X65661981Y-183450136D01*
X65708903Y-183379915D01*
X65708903Y-183379914D01*
X65709388Y-183379188D01*
X65709390Y-183379185D01*
X65709394Y-183379179D01*
X65769737Y-183233497D01*
X65800500Y-183078842D01*
X65800500Y-182921158D01*
X65800500Y-182921155D01*
X65800499Y-182921153D01*
X65769738Y-182766510D01*
X65769737Y-182766503D01*
X65746080Y-182709390D01*
X65709397Y-182620827D01*
X65709390Y-182620814D01*
X65621398Y-182489125D01*
X65600520Y-182422447D01*
X65600500Y-182420234D01*
X65600500Y-179579765D01*
X65620185Y-179512726D01*
X65621398Y-179510874D01*
X65709390Y-179379185D01*
X65709390Y-179379184D01*
X65709394Y-179379179D01*
X65769737Y-179233497D01*
X65800500Y-179078842D01*
X65800500Y-178921158D01*
X65796031Y-178898690D01*
X65802260Y-178829099D01*
X65845123Y-178773922D01*
X65911013Y-178750678D01*
X65917649Y-178750500D01*
X69637770Y-178750500D01*
X69704809Y-178770185D01*
X69725451Y-178786819D01*
X70253927Y-179315295D01*
X70280806Y-179355521D01*
X70290606Y-179379179D01*
X70290607Y-179379181D01*
X70378207Y-179510284D01*
X70378213Y-179510292D01*
X70489707Y-179621786D01*
X70489711Y-179621789D01*
X70620814Y-179709390D01*
X70620827Y-179709397D01*
X70754217Y-179764648D01*
X70766503Y-179769737D01*
X70921153Y-179800499D01*
X70921156Y-179800500D01*
X70921158Y-179800500D01*
X71078844Y-179800500D01*
X71078845Y-179800499D01*
X71233497Y-179769737D01*
X71379179Y-179709394D01*
X71510289Y-179621789D01*
X71621789Y-179510289D01*
X71709394Y-179379179D01*
X71769737Y-179233497D01*
X71800500Y-179078842D01*
X71800500Y-178921158D01*
X71800500Y-178921155D01*
X71800499Y-178921153D01*
X71794729Y-178892147D01*
X71769737Y-178766503D01*
X71763182Y-178750678D01*
X71709397Y-178620827D01*
X71709390Y-178620814D01*
X71621789Y-178489711D01*
X71621786Y-178489707D01*
X71510292Y-178378213D01*
X71510284Y-178378207D01*
X71379181Y-178290607D01*
X71379179Y-178290606D01*
X71355521Y-178280806D01*
X71315295Y-178253927D01*
X70478421Y-177417052D01*
X70478418Y-177417049D01*
X70402459Y-177366296D01*
X70402455Y-177366293D01*
X70355495Y-177334916D01*
X70355492Y-177334914D01*
X70355491Y-177334914D01*
X70218917Y-177278343D01*
X70218907Y-177278340D01*
X70073920Y-177249500D01*
X70073918Y-177249500D01*
X59941285Y-177249500D01*
X59874246Y-177229815D01*
X59854552Y-177207087D01*
X59854044Y-177207596D01*
X59220700Y-176574254D01*
X59291312Y-176545006D01*
X59392040Y-176477702D01*
X59477702Y-176392040D01*
X59545006Y-176291312D01*
X59574253Y-176220701D01*
X60167174Y-176813622D01*
X60167174Y-176813621D01*
X60216631Y-176745552D01*
X60318281Y-176546053D01*
X60387473Y-176333103D01*
X60422500Y-176111958D01*
X60422500Y-175888041D01*
X60387473Y-175666896D01*
X60318281Y-175453946D01*
X60216630Y-175254446D01*
X60167174Y-175186377D01*
X60167174Y-175186376D01*
X59574253Y-175779297D01*
X59545006Y-175708688D01*
X59477702Y-175607960D01*
X59392040Y-175522298D01*
X59291312Y-175454994D01*
X59220699Y-175425745D01*
X59813622Y-174832824D01*
X59813621Y-174832822D01*
X59745556Y-174783371D01*
X59546053Y-174681718D01*
X59333103Y-174612526D01*
X59111958Y-174577500D01*
X58888042Y-174577500D01*
X58666896Y-174612526D01*
X58453946Y-174681718D01*
X58254450Y-174783367D01*
X58186377Y-174832824D01*
X58186377Y-174832825D01*
X58779298Y-175425746D01*
X58708688Y-175454994D01*
X58607960Y-175522298D01*
X58522298Y-175607960D01*
X58454994Y-175708688D01*
X58425745Y-175779299D01*
X57832824Y-175186377D01*
X57832823Y-175186377D01*
X57830626Y-175189402D01*
X57775295Y-175232067D01*
X57705682Y-175238046D01*
X57643887Y-175205440D01*
X57629990Y-175189402D01*
X57545403Y-175072978D01*
X57387022Y-174914597D01*
X57205814Y-174782941D01*
X57006246Y-174681255D01*
X56793220Y-174612039D01*
X56772164Y-174608704D01*
X56571993Y-174577000D01*
X56348007Y-174577000D01*
X56263845Y-174590330D01*
X56126779Y-174612039D01*
X55913753Y-174681255D01*
X55714185Y-174782941D01*
X55642298Y-174835171D01*
X55532978Y-174914597D01*
X55532976Y-174914599D01*
X55532974Y-174914600D01*
X55511318Y-174936256D01*
X55449995Y-174969740D01*
X55380303Y-174964754D01*
X55324370Y-174922881D01*
X55307459Y-174891911D01*
X55286296Y-174835169D01*
X55286295Y-174835167D01*
X55286293Y-174835164D01*
X55200047Y-174719955D01*
X55200044Y-174719952D01*
X55084835Y-174633706D01*
X55084828Y-174633702D01*
X54949982Y-174583408D01*
X54949983Y-174583408D01*
X54890383Y-174577001D01*
X54890381Y-174577000D01*
X54890373Y-174577000D01*
X54890364Y-174577000D01*
X52949629Y-174577000D01*
X52949623Y-174577001D01*
X52890016Y-174583408D01*
X52755171Y-174633702D01*
X52755164Y-174633706D01*
X52639955Y-174719952D01*
X52639952Y-174719955D01*
X52553706Y-174835164D01*
X52553702Y-174835171D01*
X52503408Y-174970017D01*
X52497001Y-175029616D01*
X52497000Y-175029635D01*
X52497000Y-176970370D01*
X52497001Y-176970376D01*
X52503408Y-177029983D01*
X52553702Y-177164828D01*
X52553706Y-177164835D01*
X52639952Y-177280044D01*
X52639955Y-177280047D01*
X52755164Y-177366293D01*
X52755171Y-177366297D01*
X52890017Y-177416591D01*
X52890016Y-177416591D01*
X52896944Y-177417335D01*
X52949627Y-177423000D01*
X54890372Y-177422999D01*
X54949983Y-177416591D01*
X55042169Y-177382207D01*
X55111858Y-177377224D01*
X55173181Y-177410709D01*
X55206666Y-177472032D01*
X55209500Y-177498390D01*
X55209500Y-178970664D01*
X55189815Y-179037703D01*
X55173181Y-179058345D01*
X52966174Y-181265351D01*
X52966174Y-181265352D01*
X52966172Y-181265354D01*
X52947823Y-181290609D01*
X52850476Y-181424594D01*
X52761116Y-181599972D01*
X52754029Y-181621787D01*
X52754028Y-181621790D01*
X52700290Y-181787173D01*
X52669500Y-181981577D01*
X52669500Y-182875500D01*
X52649815Y-182942539D01*
X52597011Y-182988294D01*
X52545501Y-182999500D01*
X52372130Y-182999500D01*
X52372123Y-182999501D01*
X52312516Y-183005908D01*
X52177671Y-183056202D01*
X52177664Y-183056206D01*
X52062455Y-183142452D01*
X52062452Y-183142455D01*
X51976206Y-183257664D01*
X51976202Y-183257671D01*
X51925908Y-183392517D01*
X51919501Y-183452116D01*
X51919501Y-183452123D01*
X51919500Y-183452135D01*
X25348963Y-183452135D01*
X25193803Y-183333075D01*
X24966700Y-183201958D01*
X24966690Y-183201953D01*
X24724428Y-183101605D01*
X24724421Y-183101603D01*
X24724419Y-183101602D01*
X24471116Y-183033730D01*
X24413339Y-183026123D01*
X24211127Y-182999500D01*
X24211120Y-182999500D01*
X23948880Y-182999500D01*
X23948872Y-182999500D01*
X23717772Y-183029926D01*
X23688884Y-183033730D01*
X23520508Y-183078846D01*
X23435581Y-183101602D01*
X23435571Y-183101605D01*
X23193309Y-183201953D01*
X23193299Y-183201958D01*
X22966196Y-183333075D01*
X22758148Y-183492718D01*
X22572718Y-183678148D01*
X22413075Y-183886196D01*
X22281958Y-184113299D01*
X22281953Y-184113309D01*
X22181605Y-184355571D01*
X22181602Y-184355581D01*
X22113730Y-184608885D01*
X22079500Y-184868872D01*
X19748806Y-184868872D01*
X19730793Y-184778316D01*
X19719064Y-184750000D01*
X21000000Y-184750000D01*
X21000000Y-183452172D01*
X20999999Y-183452155D01*
X20993598Y-183392627D01*
X20993596Y-183392620D01*
X20943354Y-183257913D01*
X20943350Y-183257906D01*
X20857190Y-183142812D01*
X20857187Y-183142809D01*
X20742093Y-183056649D01*
X20742086Y-183056645D01*
X20607379Y-183006403D01*
X20607372Y-183006401D01*
X20547844Y-183000000D01*
X19250000Y-183000000D01*
X19250000Y-184280935D01*
X19221684Y-184269207D01*
X19074853Y-184240000D01*
X18925147Y-184240000D01*
X18778316Y-184269207D01*
X18750000Y-184280935D01*
X18750000Y-183000000D01*
X17452155Y-183000000D01*
X17392627Y-183006401D01*
X17392620Y-183006403D01*
X17257913Y-183056645D01*
X17257906Y-183056649D01*
X17142812Y-183142809D01*
X17142809Y-183142812D01*
X17056649Y-183257906D01*
X17056645Y-183257913D01*
X17006403Y-183392620D01*
X17006401Y-183392627D01*
X17000000Y-183452155D01*
X12744381Y-183452155D01*
X12744380Y-183452123D01*
X12688439Y-180487273D01*
X12569830Y-174200977D01*
X12536833Y-172452155D01*
X30000000Y-172452155D01*
X30000000Y-173750000D01*
X31280936Y-173750000D01*
X31269207Y-173778316D01*
X31240000Y-173925147D01*
X31240000Y-174074853D01*
X31269207Y-174221684D01*
X31280936Y-174250000D01*
X30000000Y-174250000D01*
X30000000Y-175547844D01*
X30006401Y-175607372D01*
X30006403Y-175607379D01*
X30056645Y-175742086D01*
X30056649Y-175742093D01*
X30142809Y-175857187D01*
X30142812Y-175857190D01*
X30257906Y-175943350D01*
X30257913Y-175943354D01*
X30392620Y-175993596D01*
X30392627Y-175993598D01*
X30452155Y-175999999D01*
X30452172Y-176000000D01*
X31750000Y-176000000D01*
X31750000Y-174719064D01*
X31778316Y-174730793D01*
X31925147Y-174760000D01*
X32074853Y-174760000D01*
X32221684Y-174730793D01*
X32250000Y-174719064D01*
X32250000Y-176000000D01*
X33547828Y-176000000D01*
X33547844Y-175999999D01*
X33607372Y-175993598D01*
X33607379Y-175993596D01*
X33742086Y-175943354D01*
X33742093Y-175943350D01*
X33857187Y-175857190D01*
X33857190Y-175857187D01*
X33943350Y-175742093D01*
X33943354Y-175742086D01*
X33993596Y-175607379D01*
X33993598Y-175607372D01*
X33999999Y-175547844D01*
X34000000Y-175547827D01*
X34000000Y-174250000D01*
X32719064Y-174250000D01*
X32730793Y-174221684D01*
X32760000Y-174074853D01*
X32760000Y-173925147D01*
X32748806Y-173868872D01*
X35079500Y-173868872D01*
X35079500Y-174131127D01*
X35097618Y-174268735D01*
X35113730Y-174391116D01*
X35181602Y-174644418D01*
X35181605Y-174644428D01*
X35281953Y-174886690D01*
X35281958Y-174886700D01*
X35413075Y-175113803D01*
X35572718Y-175321851D01*
X35572726Y-175321860D01*
X35758140Y-175507274D01*
X35758148Y-175507281D01*
X35758149Y-175507282D01*
X35762068Y-175510289D01*
X35966196Y-175666924D01*
X36193299Y-175798041D01*
X36193309Y-175798046D01*
X36336096Y-175857190D01*
X36435581Y-175898398D01*
X36688884Y-175966270D01*
X36937188Y-175998960D01*
X36945074Y-175999999D01*
X36948880Y-176000500D01*
X36948887Y-176000500D01*
X37211113Y-176000500D01*
X37211120Y-176000500D01*
X37471116Y-175966270D01*
X37724419Y-175898398D01*
X37912213Y-175820611D01*
X37966690Y-175798046D01*
X37966691Y-175798045D01*
X37966697Y-175798043D01*
X38193803Y-175666924D01*
X38401851Y-175507282D01*
X38401855Y-175507277D01*
X38401860Y-175507274D01*
X38587274Y-175321860D01*
X38587277Y-175321855D01*
X38587282Y-175321851D01*
X38746924Y-175113803D01*
X38878043Y-174886697D01*
X38978398Y-174644419D01*
X39046270Y-174391116D01*
X39080500Y-174131120D01*
X39080500Y-173868880D01*
X39046270Y-173608884D01*
X38978398Y-173355581D01*
X38927826Y-173233489D01*
X38878046Y-173113309D01*
X38878041Y-173113299D01*
X38746924Y-172886196D01*
X38611254Y-172709390D01*
X38587282Y-172678149D01*
X38587281Y-172678148D01*
X38587274Y-172678140D01*
X38401860Y-172492726D01*
X38401851Y-172492718D01*
X38193803Y-172333075D01*
X37966700Y-172201958D01*
X37966690Y-172201953D01*
X37724428Y-172101605D01*
X37724421Y-172101603D01*
X37724419Y-172101602D01*
X37471116Y-172033730D01*
X37413339Y-172026123D01*
X37211127Y-171999500D01*
X37211120Y-171999500D01*
X36948880Y-171999500D01*
X36948872Y-171999500D01*
X36717772Y-172029926D01*
X36688884Y-172033730D01*
X36520508Y-172078846D01*
X36435581Y-172101602D01*
X36435571Y-172101605D01*
X36193309Y-172201953D01*
X36193299Y-172201958D01*
X35966196Y-172333075D01*
X35758148Y-172492718D01*
X35572718Y-172678148D01*
X35413075Y-172886196D01*
X35281958Y-173113299D01*
X35281953Y-173113309D01*
X35181605Y-173355571D01*
X35181602Y-173355581D01*
X35113730Y-173608884D01*
X35112031Y-173621786D01*
X35079500Y-173868872D01*
X32748806Y-173868872D01*
X32730793Y-173778316D01*
X32719064Y-173750000D01*
X34000000Y-173750000D01*
X34000000Y-172452172D01*
X33999999Y-172452155D01*
X33993598Y-172392627D01*
X33993596Y-172392620D01*
X33943354Y-172257913D01*
X33943350Y-172257906D01*
X33857190Y-172142812D01*
X33857187Y-172142809D01*
X33742093Y-172056649D01*
X33742086Y-172056645D01*
X33607379Y-172006403D01*
X33607372Y-172006401D01*
X33547844Y-172000000D01*
X32250000Y-172000000D01*
X32250000Y-173280935D01*
X32221684Y-173269207D01*
X32074853Y-173240000D01*
X31925147Y-173240000D01*
X31778316Y-173269207D01*
X31750000Y-173280935D01*
X31750000Y-172000000D01*
X30452155Y-172000000D01*
X30392627Y-172006401D01*
X30392620Y-172006403D01*
X30257913Y-172056645D01*
X30257906Y-172056649D01*
X30142812Y-172142809D01*
X30142809Y-172142812D01*
X30056649Y-172257906D01*
X30056645Y-172257913D01*
X30006403Y-172392620D01*
X30006401Y-172392627D01*
X30000000Y-172452155D01*
X12536833Y-172452155D01*
X12536815Y-172451190D01*
X12526814Y-171921153D01*
X52199500Y-171921153D01*
X52199500Y-172078846D01*
X52230261Y-172233489D01*
X52230264Y-172233501D01*
X52290602Y-172379172D01*
X52290609Y-172379185D01*
X52378210Y-172510288D01*
X52378213Y-172510292D01*
X52489707Y-172621786D01*
X52489711Y-172621789D01*
X52620814Y-172709390D01*
X52620827Y-172709397D01*
X52748828Y-172762416D01*
X52766503Y-172769737D01*
X52912285Y-172798735D01*
X52921153Y-172800499D01*
X52921156Y-172800500D01*
X52921158Y-172800500D01*
X53078844Y-172800500D01*
X53078845Y-172800499D01*
X53233497Y-172769737D01*
X53379179Y-172709394D01*
X53389286Y-172702641D01*
X53510875Y-172621398D01*
X53577553Y-172600520D01*
X53579766Y-172600500D01*
X58420234Y-172600500D01*
X58487273Y-172620185D01*
X58489125Y-172621398D01*
X58620814Y-172709390D01*
X58620827Y-172709397D01*
X58748828Y-172762416D01*
X58766503Y-172769737D01*
X58912285Y-172798735D01*
X58921153Y-172800499D01*
X58921156Y-172800500D01*
X58921158Y-172800500D01*
X59078844Y-172800500D01*
X59078845Y-172800499D01*
X59233497Y-172769737D01*
X59379179Y-172709394D01*
X59510289Y-172621789D01*
X59621789Y-172510289D01*
X59709394Y-172379179D01*
X59769737Y-172233497D01*
X59800500Y-172078842D01*
X59800500Y-171921158D01*
X59800500Y-171921155D01*
X59800499Y-171921153D01*
X59781847Y-171827385D01*
X59769737Y-171766503D01*
X59716656Y-171638352D01*
X59709397Y-171620827D01*
X59709390Y-171620814D01*
X59621789Y-171489711D01*
X59621786Y-171489707D01*
X59510292Y-171378213D01*
X59510288Y-171378210D01*
X59379185Y-171290609D01*
X59379172Y-171290602D01*
X59233501Y-171230264D01*
X59233489Y-171230261D01*
X59078845Y-171199500D01*
X59078842Y-171199500D01*
X58921158Y-171199500D01*
X58921155Y-171199500D01*
X58766510Y-171230261D01*
X58766498Y-171230264D01*
X58620827Y-171290602D01*
X58620814Y-171290609D01*
X58489125Y-171378602D01*
X58422447Y-171399480D01*
X58420234Y-171399500D01*
X53579766Y-171399500D01*
X53512727Y-171379815D01*
X53510875Y-171378602D01*
X53379185Y-171290609D01*
X53379172Y-171290602D01*
X53233501Y-171230264D01*
X53233489Y-171230261D01*
X53078845Y-171199500D01*
X53078842Y-171199500D01*
X52921158Y-171199500D01*
X52921155Y-171199500D01*
X52766510Y-171230261D01*
X52766498Y-171230264D01*
X52620827Y-171290602D01*
X52620814Y-171290609D01*
X52489711Y-171378210D01*
X52489707Y-171378213D01*
X52378213Y-171489707D01*
X52378210Y-171489711D01*
X52290609Y-171620814D01*
X52290602Y-171620827D01*
X52230264Y-171766498D01*
X52230261Y-171766510D01*
X52199500Y-171921153D01*
X12526814Y-171921153D01*
X12500522Y-170527666D01*
X12500500Y-170525327D01*
X12500500Y-167921153D01*
X71199500Y-167921153D01*
X71199500Y-168078846D01*
X71230261Y-168233489D01*
X71230264Y-168233501D01*
X71290602Y-168379172D01*
X71290609Y-168379185D01*
X71378210Y-168510288D01*
X71378213Y-168510292D01*
X71489707Y-168621786D01*
X71489711Y-168621789D01*
X71620814Y-168709390D01*
X71620827Y-168709397D01*
X71758683Y-168766498D01*
X71766503Y-168769737D01*
X71921153Y-168800499D01*
X71921156Y-168800500D01*
X71921158Y-168800500D01*
X72078844Y-168800500D01*
X72078845Y-168800499D01*
X72233497Y-168769737D01*
X72379179Y-168709394D01*
X72510289Y-168621789D01*
X72621789Y-168510289D01*
X72709394Y-168379179D01*
X72769737Y-168233497D01*
X72789113Y-168136085D01*
X72800638Y-168078150D01*
X72833023Y-168016239D01*
X72834518Y-168014716D01*
X74212416Y-166636819D01*
X74273739Y-166603334D01*
X74300097Y-166600500D01*
X85420234Y-166600500D01*
X85487273Y-166620185D01*
X85489125Y-166621398D01*
X85620814Y-166709390D01*
X85620827Y-166709397D01*
X85758683Y-166766498D01*
X85766503Y-166769737D01*
X85921153Y-166800499D01*
X85921156Y-166800500D01*
X85921158Y-166800500D01*
X86078844Y-166800500D01*
X86078845Y-166800499D01*
X86233497Y-166769737D01*
X86379179Y-166709394D01*
X86510289Y-166621789D01*
X86621789Y-166510289D01*
X86709394Y-166379179D01*
X86769737Y-166233497D01*
X86800500Y-166078842D01*
X86800500Y-165921158D01*
X86800500Y-165921155D01*
X86800499Y-165921153D01*
X86769738Y-165766510D01*
X86769737Y-165766503D01*
X86713728Y-165631284D01*
X86709397Y-165620827D01*
X86709390Y-165620814D01*
X86621789Y-165489711D01*
X86621786Y-165489707D01*
X86510292Y-165378213D01*
X86510288Y-165378210D01*
X86379185Y-165290609D01*
X86379172Y-165290602D01*
X86233501Y-165230264D01*
X86233489Y-165230261D01*
X86078845Y-165199500D01*
X86078842Y-165199500D01*
X85921158Y-165199500D01*
X85921155Y-165199500D01*
X85766510Y-165230261D01*
X85766498Y-165230264D01*
X85620827Y-165290602D01*
X85620814Y-165290609D01*
X85489125Y-165378602D01*
X85422447Y-165399480D01*
X85420234Y-165399500D01*
X74079057Y-165399500D01*
X73920943Y-165399500D01*
X73768215Y-165440423D01*
X73768214Y-165440423D01*
X73768212Y-165440424D01*
X73768209Y-165440425D01*
X73718096Y-165469359D01*
X73718095Y-165469360D01*
X73682853Y-165489707D01*
X73631285Y-165519479D01*
X73631282Y-165519481D01*
X71985339Y-167165425D01*
X71924016Y-167198910D01*
X71921850Y-167199361D01*
X71766508Y-167230261D01*
X71766498Y-167230264D01*
X71620827Y-167290602D01*
X71620814Y-167290609D01*
X71489711Y-167378210D01*
X71489707Y-167378213D01*
X71378213Y-167489707D01*
X71378210Y-167489711D01*
X71290609Y-167620814D01*
X71290602Y-167620827D01*
X71230264Y-167766498D01*
X71230261Y-167766510D01*
X71199500Y-167921153D01*
X12500500Y-167921153D01*
X12500500Y-144150924D01*
X12520185Y-144083885D01*
X12572989Y-144038130D01*
X12629814Y-144027038D01*
X35292895Y-145000000D01*
X105936479Y-145049221D01*
X105985633Y-145049256D01*
X105985633Y-145049255D01*
X105985634Y-145049256D01*
X109783024Y-132029635D01*
X131277000Y-132029635D01*
X131277000Y-133970370D01*
X131277001Y-133970376D01*
X131283408Y-134029983D01*
X131333702Y-134164828D01*
X131333706Y-134164835D01*
X131419952Y-134280044D01*
X131419955Y-134280047D01*
X131535164Y-134366293D01*
X131535167Y-134366295D01*
X131535168Y-134366295D01*
X131535169Y-134366296D01*
X131591908Y-134387458D01*
X131647839Y-134429327D01*
X131672257Y-134494791D01*
X131657406Y-134563064D01*
X131636256Y-134591318D01*
X131614600Y-134612974D01*
X131614599Y-134612976D01*
X131614597Y-134612978D01*
X131591754Y-134644419D01*
X131482941Y-134794185D01*
X131381255Y-134993753D01*
X131312039Y-135206779D01*
X131277000Y-135428007D01*
X131277000Y-135651992D01*
X131312039Y-135873220D01*
X131381255Y-136086246D01*
X131482941Y-136285814D01*
X131614597Y-136467022D01*
X131772978Y-136625403D01*
X131889402Y-136709990D01*
X131932067Y-136765320D01*
X131938046Y-136834934D01*
X131905440Y-136896729D01*
X131889402Y-136910626D01*
X131886377Y-136912823D01*
X131886377Y-136912825D01*
X132479298Y-137505746D01*
X132408688Y-137534994D01*
X132307960Y-137602298D01*
X132222298Y-137687960D01*
X132154994Y-137788688D01*
X132125746Y-137859298D01*
X131532825Y-137266377D01*
X131532824Y-137266377D01*
X131483367Y-137334450D01*
X131381718Y-137533946D01*
X131312526Y-137746896D01*
X131277500Y-137968041D01*
X131277500Y-138191958D01*
X131312526Y-138413103D01*
X131381718Y-138626053D01*
X131483371Y-138825556D01*
X131532822Y-138893621D01*
X131532824Y-138893622D01*
X132125745Y-138300700D01*
X132154994Y-138371312D01*
X132222298Y-138472040D01*
X132307960Y-138557702D01*
X132408688Y-138625006D01*
X132479298Y-138654253D01*
X131886376Y-139247174D01*
X131954446Y-139296630D01*
X132153946Y-139398281D01*
X132366896Y-139467473D01*
X132588042Y-139502500D01*
X132811958Y-139502500D01*
X133033103Y-139467473D01*
X133246053Y-139398281D01*
X133445552Y-139296631D01*
X133513621Y-139247174D01*
X133513622Y-139247174D01*
X132920701Y-138654253D01*
X132991312Y-138625006D01*
X133092040Y-138557702D01*
X133177702Y-138472040D01*
X133245006Y-138371312D01*
X133274253Y-138300701D01*
X133867174Y-138893622D01*
X133867174Y-138893621D01*
X133916631Y-138825552D01*
X134018281Y-138626053D01*
X134087473Y-138413103D01*
X134122500Y-138191958D01*
X134122500Y-137968041D01*
X134087473Y-137746896D01*
X134018281Y-137533946D01*
X133916630Y-137334446D01*
X133867174Y-137266377D01*
X133867174Y-137266376D01*
X133274253Y-137859297D01*
X133245006Y-137788688D01*
X133177702Y-137687960D01*
X133092040Y-137602298D01*
X132991312Y-137534994D01*
X132920699Y-137505745D01*
X133513622Y-136912824D01*
X133513621Y-136912822D01*
X133510598Y-136910626D01*
X133467932Y-136855296D01*
X133461953Y-136785683D01*
X133494558Y-136723888D01*
X133510594Y-136709992D01*
X133627022Y-136625403D01*
X133785403Y-136467022D01*
X133917059Y-136285814D01*
X133956603Y-136208205D01*
X134004578Y-136157409D01*
X134067088Y-136140500D01*
X137239903Y-136140500D01*
X137306942Y-136160185D01*
X137327584Y-136176819D01*
X140595139Y-139444374D01*
X140595149Y-139444385D01*
X140599479Y-139448715D01*
X140599480Y-139448716D01*
X140711284Y-139560520D01*
X140798095Y-139610639D01*
X140798097Y-139610641D01*
X140836151Y-139632611D01*
X140848215Y-139639577D01*
X141000943Y-139680501D01*
X141000946Y-139680501D01*
X141166653Y-139680501D01*
X141166669Y-139680500D01*
X147575501Y-139680500D01*
X147642540Y-139700185D01*
X147688295Y-139752989D01*
X147699501Y-139804500D01*
X147699501Y-140627876D01*
X147705908Y-140687483D01*
X147756202Y-140822328D01*
X147756206Y-140822335D01*
X147842452Y-140937544D01*
X147842455Y-140937547D01*
X147957664Y-141023793D01*
X147957671Y-141023797D01*
X148092517Y-141074091D01*
X148092516Y-141074091D01*
X148099444Y-141074835D01*
X148152127Y-141080500D01*
X151247872Y-141080499D01*
X151307483Y-141074091D01*
X151442331Y-141023796D01*
X151557546Y-140937546D01*
X151643796Y-140822331D01*
X151694091Y-140687483D01*
X151700500Y-140627873D01*
X151700499Y-137532128D01*
X151694091Y-137472517D01*
X151691287Y-137465000D01*
X151643797Y-137337671D01*
X151643793Y-137337664D01*
X151557547Y-137222455D01*
X151557544Y-137222452D01*
X151442335Y-137136206D01*
X151442328Y-137136202D01*
X151307482Y-137085908D01*
X151307483Y-137085908D01*
X151247883Y-137079501D01*
X151247881Y-137079500D01*
X151247873Y-137079500D01*
X151247864Y-137079500D01*
X148152129Y-137079500D01*
X148152123Y-137079501D01*
X148092516Y-137085908D01*
X147957671Y-137136202D01*
X147957664Y-137136206D01*
X147842455Y-137222452D01*
X147842452Y-137222455D01*
X147756206Y-137337664D01*
X147756202Y-137337671D01*
X147705908Y-137472517D01*
X147699501Y-137532116D01*
X147699501Y-137532123D01*
X147699500Y-137532135D01*
X147699500Y-138355500D01*
X147679815Y-138422539D01*
X147627011Y-138468294D01*
X147575500Y-138479500D01*
X141380097Y-138479500D01*
X141313058Y-138459815D01*
X141292416Y-138443181D01*
X138027590Y-135178355D01*
X138027588Y-135178352D01*
X137908717Y-135059481D01*
X137908716Y-135059480D01*
X137821904Y-135009360D01*
X137821904Y-135009359D01*
X137821900Y-135009358D01*
X137771785Y-134980423D01*
X137619057Y-134939499D01*
X137460943Y-134939499D01*
X137453347Y-134939499D01*
X137453331Y-134939500D01*
X134067088Y-134939500D01*
X134000049Y-134919815D01*
X133956603Y-134871795D01*
X133917058Y-134794185D01*
X133785403Y-134612978D01*
X133763745Y-134591320D01*
X133730260Y-134529997D01*
X133735244Y-134460305D01*
X133777116Y-134404372D01*
X133808088Y-134387459D01*
X133864831Y-134366296D01*
X133980046Y-134280046D01*
X134066296Y-134164831D01*
X134116591Y-134029983D01*
X134123000Y-133970373D01*
X134123000Y-133868872D01*
X147699500Y-133868872D01*
X147699500Y-134131127D01*
X147719107Y-134280046D01*
X147733730Y-134391116D01*
X147801602Y-134644418D01*
X147801605Y-134644428D01*
X147901953Y-134886690D01*
X147901958Y-134886700D01*
X148033075Y-135113803D01*
X148192718Y-135321851D01*
X148192726Y-135321860D01*
X148378140Y-135507274D01*
X148378148Y-135507281D01*
X148378149Y-135507282D01*
X148426554Y-135544424D01*
X148586196Y-135666924D01*
X148813299Y-135798041D01*
X148813309Y-135798046D01*
X149055571Y-135898394D01*
X149055581Y-135898398D01*
X149308884Y-135966270D01*
X149568880Y-136000500D01*
X149568887Y-136000500D01*
X149831113Y-136000500D01*
X149831120Y-136000500D01*
X150091116Y-135966270D01*
X150344419Y-135898398D01*
X150586697Y-135798043D01*
X150813803Y-135666924D01*
X151021851Y-135507282D01*
X151021855Y-135507277D01*
X151021860Y-135507274D01*
X151207274Y-135321860D01*
X151207277Y-135321855D01*
X151207282Y-135321851D01*
X151366924Y-135113803D01*
X151498043Y-134886697D01*
X151598398Y-134644419D01*
X151666270Y-134391116D01*
X151700500Y-134131120D01*
X151700500Y-133868880D01*
X151666270Y-133608884D01*
X151598398Y-133355581D01*
X151598394Y-133355571D01*
X151498046Y-133113309D01*
X151498041Y-133113299D01*
X151366924Y-132886196D01*
X151207281Y-132678148D01*
X151207274Y-132678140D01*
X151021860Y-132492726D01*
X151021851Y-132492718D01*
X150813803Y-132333075D01*
X150586700Y-132201958D01*
X150586690Y-132201953D01*
X150344428Y-132101605D01*
X150344421Y-132101603D01*
X150344419Y-132101602D01*
X150091116Y-132033730D01*
X150033339Y-132026123D01*
X149831127Y-131999500D01*
X149831120Y-131999500D01*
X149568880Y-131999500D01*
X149568872Y-131999500D01*
X149340132Y-132029616D01*
X149308884Y-132033730D01*
X149055581Y-132101602D01*
X149055571Y-132101605D01*
X148813309Y-132201953D01*
X148813299Y-132201958D01*
X148586196Y-132333075D01*
X148378148Y-132492718D01*
X148192718Y-132678148D01*
X148033075Y-132886196D01*
X147901958Y-133113299D01*
X147901953Y-133113309D01*
X147801605Y-133355571D01*
X147801602Y-133355581D01*
X147733730Y-133608885D01*
X147699500Y-133868872D01*
X134123000Y-133868872D01*
X134122999Y-132029628D01*
X134116591Y-131970017D01*
X134066296Y-131835169D01*
X134066295Y-131835168D01*
X134066293Y-131835164D01*
X133980047Y-131719955D01*
X133980044Y-131719952D01*
X133864835Y-131633706D01*
X133864828Y-131633702D01*
X133729982Y-131583408D01*
X133729983Y-131583408D01*
X133670383Y-131577001D01*
X133670381Y-131577000D01*
X133670373Y-131577000D01*
X133670364Y-131577000D01*
X131729629Y-131577000D01*
X131729623Y-131577001D01*
X131670016Y-131583408D01*
X131535171Y-131633702D01*
X131535164Y-131633706D01*
X131419955Y-131719952D01*
X131419952Y-131719955D01*
X131333706Y-131835164D01*
X131333702Y-131835171D01*
X131283408Y-131970017D01*
X131280239Y-131999500D01*
X131277001Y-132029623D01*
X131277000Y-132029635D01*
X109783024Y-132029635D01*
X109873348Y-131719952D01*
X112973960Y-121089280D01*
X113011628Y-121030434D01*
X113075131Y-121001294D01*
X113093000Y-121000000D01*
X168375500Y-121000000D01*
X168442539Y-121019685D01*
G37*
%TD.AperFunction*%
%TD*%
M02*
