%TF.GenerationSoftware,KiCad,Pcbnew,9.0.0*%
%TF.CreationDate,2025-07-08T15:13:07+02:00*%
%TF.ProjectId,Genric ESP32 5 MOSFEST ,47656e72-6963-4204-9553-503332203520,rev?*%
%TF.SameCoordinates,Original*%
%TF.FileFunction,Soldermask,Bot*%
%TF.FilePolarity,Negative*%
%FSLAX46Y46*%
G04 Gerber Fmt 4.6, Leading zero omitted, Abs format (unit mm)*
G04 Created by KiCad (PCBNEW 9.0.0) date 2025-07-08 15:13:07*
%MOMM*%
%LPD*%
G01*
G04 APERTURE LIST*
%ADD10C,1.560000*%
%ADD11R,1.560000X1.560000*%
%ADD12R,1.845000X1.845000*%
%ADD13C,1.845000*%
%ADD14R,3.000000X3.000000*%
%ADD15C,3.000000*%
%ADD16C,1.400000*%
G04 APERTURE END LIST*
D10*
%TO.C,U2*%
X96400000Y-111000000D03*
X93860000Y-111000000D03*
X91320000Y-111000000D03*
X88780000Y-111000000D03*
X86240000Y-111000000D03*
X83700000Y-111000000D03*
X81160000Y-111000000D03*
X78620000Y-111000000D03*
X76080000Y-111000000D03*
X73540000Y-111000000D03*
X71000000Y-111000000D03*
X68460000Y-111000000D03*
X65920000Y-111000000D03*
X63380000Y-111000000D03*
X60840000Y-111000000D03*
X58300000Y-111000000D03*
X55760000Y-111000000D03*
X53220000Y-111000000D03*
X50680000Y-111000000D03*
X93860000Y-136400000D03*
X91320000Y-136400000D03*
X88780000Y-136400000D03*
X86240000Y-136400000D03*
X83700000Y-136400000D03*
X81160000Y-136400000D03*
X78620000Y-136400000D03*
X76080000Y-136400000D03*
X73540000Y-136400000D03*
X71000000Y-136400000D03*
X68460000Y-136400000D03*
X65920000Y-136400000D03*
X63380000Y-136400000D03*
X60840000Y-136400000D03*
X58300000Y-136400000D03*
X55760000Y-136400000D03*
X96400000Y-136400000D03*
X53220000Y-136400000D03*
D11*
X50680000Y-136400000D03*
%TD*%
D12*
%TO.C,Q6*%
X132700000Y-133000000D03*
D13*
X132700000Y-135540000D03*
X132700000Y-138080000D03*
%TD*%
D12*
%TO.C,Q5*%
X133510000Y-176000000D03*
D13*
X136050000Y-176000000D03*
X138590000Y-176000000D03*
%TD*%
D12*
%TO.C,Q4*%
X106980000Y-176000000D03*
D13*
X109520000Y-176000000D03*
X112060000Y-176000000D03*
%TD*%
D12*
%TO.C,Q3*%
X80450000Y-176000000D03*
D13*
X82990000Y-176000000D03*
X85530000Y-176000000D03*
%TD*%
D12*
%TO.C,Q1*%
X53920000Y-176000000D03*
D13*
X56460000Y-176000000D03*
X59000000Y-176000000D03*
%TD*%
D14*
%TO.C,J10*%
X149700000Y-139080000D03*
D15*
X149700000Y-134000000D03*
%TD*%
D14*
%TO.C,J9*%
X32000000Y-174000000D03*
D15*
X37080000Y-174000000D03*
%TD*%
D14*
%TO.C,J8*%
X133497143Y-185000000D03*
D15*
X138577143Y-185000000D03*
%TD*%
D14*
%TO.C,J7*%
X106971429Y-185000000D03*
D15*
X112051429Y-185000000D03*
%TD*%
D14*
%TO.C,J6*%
X80445714Y-185000000D03*
D15*
X85525714Y-185000000D03*
%TD*%
D14*
%TO.C,J5*%
X19000000Y-185000000D03*
D15*
X24080000Y-185000000D03*
%TD*%
D14*
%TO.C,J4*%
X53920000Y-185000000D03*
D15*
X59000000Y-185000000D03*
%TD*%
D16*
%TO.C,F1*%
X40000000Y-185000000D03*
X45100000Y-186800000D03*
%TD*%
M02*
