M48
; DRILL file {KiCad 9.0.0} date 2025-07-08T15:12:50+0200
; FORMAT={3:3/ absolute / metric / suppress leading zeros}
; #@! TF.CreationDate,2025-07-08T15:12:50+02:00
; #@! TF.GenerationSoftware,Kicad,Pcbnew,9.0.0
; #@! TF.FileFunction,Plated,1,2,PTH
FMAT,2
METRIC,TZ
; #@! TA.AperFunction,Plated,PTH,ViaDrill
T1C0.300
; #@! TA.AperFunction,Plated,PTH,ComponentDrill
T2C0.850
; #@! TA.AperFunction,Plated,PTH,ComponentDrill
T3C1.040
; #@! TA.AperFunction,Plated,PTH,ComponentDrill
T4C1.230
; #@! TA.AperFunction,Plated,PTH,ComponentDrill
T5C1.520
%
G90
G05
T1
X40500Y-158500
X53000Y-172000
X59000Y-172000
X62000Y-167000
X65000Y-179000
X65000Y-183000
X71000Y-179000
X72000Y-168000
X75000Y-189000
X83000Y-162000
X86000Y-166000
X93000Y-182000
X94000Y-180000
X98000Y-173000
X99000Y-167000
X99000Y-169000
X101000Y-188000
X104000Y-172000
X108000Y-173000
X111000Y-173000
X111000Y-179000
X113000Y-179000
X120000Y-178000
X120000Y-181000
X126000Y-173000
X129000Y-189000
X135000Y-173000
X138000Y-173000
X143000Y-182000
X144000Y-175000
X144000Y-178000
X153000Y-172000
T2
X40000Y-185000
X45100Y-186800
T3
X50680Y-111000
X50680Y-136400
X53220Y-111000
X53220Y-136400
X55760Y-111000
X55760Y-136400
X58300Y-111000
X58300Y-136400
X60840Y-111000
X60840Y-136400
X63380Y-111000
X63380Y-136400
X65920Y-111000
X65920Y-136400
X68460Y-111000
X68460Y-136400
X71000Y-111000
X71000Y-136400
X73540Y-111000
X73540Y-136400
X76080Y-111000
X76080Y-136400
X78620Y-111000
X78620Y-136400
X81160Y-111000
X81160Y-136400
X83700Y-111000
X83700Y-136400
X86240Y-111000
X86240Y-136400
X88780Y-111000
X88780Y-136400
X91320Y-111000
X91320Y-136400
X93860Y-111000
X93860Y-136400
X96400Y-111000
X96400Y-136400
T4
X53920Y-176000
X56460Y-176000
X59000Y-176000
X80450Y-176000
X82990Y-176000
X85530Y-176000
X106980Y-176000
X109520Y-176000
X112060Y-176000
X132700Y-133000
X132700Y-135540
X132700Y-138080
X133510Y-176000
X136050Y-176000
X138590Y-176000
T5
X19000Y-185000
X24080Y-185000
X32000Y-174000
X37080Y-174000
X53920Y-185000
X59000Y-185000
X80446Y-185000
X85526Y-185000
X106971Y-185000
X112051Y-185000
X133497Y-185000
X138577Y-185000
X149700Y-134000
X149700Y-139080
M30
