%TF.GenerationSoftware,KiCad,Pcbnew,9.0.0*%
%TF.CreationDate,2025-07-08T15:13:07+02:00*%
%TF.ProjectId,Genric ESP32 5 MOSFEST ,47656e72-6963-4204-9553-503332203520,rev?*%
%TF.SameCoordinates,Original*%
%TF.FileFunction,Paste,Top*%
%TF.FilePolarity,Positive*%
%FSLAX46Y46*%
G04 Gerber Fmt 4.6, Leading zero omitted, Abs format (unit mm)*
G04 Created by KiCad (PCBNEW 9.0.0) date 2025-07-08 15:13:07*
%MOMM*%
%LPD*%
G01*
G04 APERTURE LIST*
G04 Aperture macros list*
%AMRoundRect*
0 Rectangle with rounded corners*
0 $1 Rounding radius*
0 $2 $3 $4 $5 $6 $7 $8 $9 X,Y pos of 4 corners*
0 Add a 4 corners polygon primitive as box body*
4,1,4,$2,$3,$4,$5,$6,$7,$8,$9,$2,$3,0*
0 Add four circle primitives for the rounded corners*
1,1,$1+$1,$2,$3*
1,1,$1+$1,$4,$5*
1,1,$1+$1,$6,$7*
1,1,$1+$1,$8,$9*
0 Add four rect primitives between the rounded corners*
20,1,$1+$1,$2,$3,$4,$5,0*
20,1,$1+$1,$4,$5,$6,$7,0*
20,1,$1+$1,$6,$7,$8,$9,0*
20,1,$1+$1,$8,$9,$2,$3,0*%
G04 Aperture macros list end*
%ADD10RoundRect,0.250000X-1.000000X-0.650000X1.000000X-0.650000X1.000000X0.650000X-1.000000X0.650000X0*%
%ADD11RoundRect,0.250000X-0.325000X-0.450000X0.325000X-0.450000X0.325000X0.450000X-0.325000X0.450000X0*%
%ADD12RoundRect,0.225000X-0.250000X0.225000X-0.250000X-0.225000X0.250000X-0.225000X0.250000X0.225000X0*%
%ADD13RoundRect,0.225000X-0.225000X-0.250000X0.225000X-0.250000X0.225000X0.250000X-0.225000X0.250000X0*%
%ADD14RoundRect,0.250000X-0.450000X0.350000X-0.450000X-0.350000X0.450000X-0.350000X0.450000X0.350000X0*%
%ADD15RoundRect,0.250000X0.350000X0.450000X-0.350000X0.450000X-0.350000X-0.450000X0.350000X-0.450000X0*%
%ADD16RoundRect,0.250000X0.450000X-0.350000X0.450000X0.350000X-0.450000X0.350000X-0.450000X-0.350000X0*%
%ADD17RoundRect,0.250000X-0.350000X-0.450000X0.350000X-0.450000X0.350000X0.450000X-0.350000X0.450000X0*%
%ADD18RoundRect,0.250000X0.325000X0.450000X-0.325000X0.450000X-0.325000X-0.450000X0.325000X-0.450000X0*%
%ADD19RoundRect,0.250000X-1.500000X-0.550000X1.500000X-0.550000X1.500000X0.550000X-1.500000X0.550000X0*%
%ADD20RoundRect,0.250000X-1.950000X-1.000000X1.950000X-1.000000X1.950000X1.000000X-1.950000X1.000000X0*%
G04 APERTURE END LIST*
D10*
%TO.C,D9*%
X97000000Y-176000000D03*
X93000000Y-176000000D03*
%TD*%
D11*
%TO.C,D1*%
X64975000Y-168000000D03*
X67025000Y-168000000D03*
%TD*%
D12*
%TO.C,C10*%
X153345000Y-173225000D03*
X153345000Y-174775000D03*
%TD*%
D13*
%TO.C,C8*%
X126006667Y-174000000D03*
X127556667Y-174000000D03*
%TD*%
%TO.C,C6*%
X99443333Y-174000000D03*
X100993333Y-174000000D03*
%TD*%
%TO.C,C4*%
X71000000Y-172000000D03*
X72550000Y-172000000D03*
%TD*%
%TO.C,C2*%
X29570000Y-154000000D03*
X31120000Y-154000000D03*
%TD*%
D14*
%TO.C,R5*%
X63000000Y-162000000D03*
X63000000Y-164000000D03*
%TD*%
D15*
%TO.C,R9*%
X102000000Y-166000000D03*
X100000000Y-166000000D03*
%TD*%
D16*
%TO.C,R10*%
X59000000Y-159000000D03*
X59000000Y-161000000D03*
%TD*%
D17*
%TO.C,R7*%
X79000000Y-168000000D03*
X77000000Y-168000000D03*
%TD*%
D11*
%TO.C,D4*%
X86025000Y-168000000D03*
X83975000Y-168000000D03*
%TD*%
D16*
%TO.C,R11*%
X131000000Y-159000000D03*
X131000000Y-161000000D03*
%TD*%
%TO.C,R6*%
X81000000Y-164000000D03*
X81000000Y-162000000D03*
%TD*%
D11*
%TO.C,D5*%
X102716667Y-171000000D03*
X100666667Y-171000000D03*
%TD*%
D16*
%TO.C,R12*%
X77000000Y-158000000D03*
X77000000Y-160000000D03*
%TD*%
D15*
%TO.C,R8*%
X108666667Y-171000000D03*
X110666667Y-171000000D03*
%TD*%
%TO.C,R15*%
X127000000Y-166000000D03*
X129000000Y-166000000D03*
%TD*%
D11*
%TO.C,D6*%
X127000000Y-171000000D03*
X129050000Y-171000000D03*
%TD*%
D16*
%TO.C,R13*%
X107000000Y-159000000D03*
X107000000Y-161000000D03*
%TD*%
D17*
%TO.C,R4*%
X58000000Y-168000000D03*
X60000000Y-168000000D03*
%TD*%
%TO.C,R18*%
X131700000Y-148000000D03*
X133700000Y-148000000D03*
%TD*%
%TO.C,R17*%
X139700000Y-148000000D03*
X141700000Y-148000000D03*
%TD*%
D15*
%TO.C,R16*%
X117700000Y-133000000D03*
X115700000Y-133000000D03*
%TD*%
%TO.C,R14*%
X137000000Y-171000000D03*
X135000000Y-171000000D03*
%TD*%
D10*
%TO.C,D10*%
X67000000Y-176000000D03*
X71000000Y-176000000D03*
%TD*%
%TO.C,D8*%
X119000000Y-176000000D03*
X123000000Y-176000000D03*
%TD*%
D18*
%TO.C,D7*%
X126750000Y-148000000D03*
X124700000Y-148000000D03*
%TD*%
D10*
%TO.C,D3*%
X147000000Y-176000000D03*
X151000000Y-176000000D03*
%TD*%
D19*
%TO.C,C9*%
X146600000Y-185000000D03*
X152000000Y-185000000D03*
%TD*%
%TO.C,C7*%
X120074286Y-185000000D03*
X125474286Y-185000000D03*
%TD*%
%TO.C,C5*%
X93548571Y-185000000D03*
X98948571Y-185000000D03*
%TD*%
%TO.C,C3*%
X67022857Y-185000000D03*
X72422857Y-185000000D03*
%TD*%
D20*
%TO.C,C1*%
X15800000Y-157000000D03*
X24200000Y-157000000D03*
%TD*%
M02*
